<?xml version="1.0" encoding="UTF-8" standalone="no"?>
<!-- Created with Inkscape (http://www.inkscape.org/) -->

<svg
   xmlns:dc="http://purl.org/dc/elements/1.1/"
   xmlns:cc="http://creativecommons.org/ns#"
   xmlns:rdf="http://www.w3.org/1999/02/22-rdf-syntax-ns#"
   xmlns:svg="http://www.w3.org/2000/svg"
   xmlns="http://www.w3.org/2000/svg"
   xmlns:sodipodi="http://sodipodi.sourceforge.net/DTD/sodipodi-0.dtd"
   xmlns:inkscape="http://www.inkscape.org/namespaces/inkscape"
   id="svg2985"
   version="1.1"
   inkscape:version="0.48.4 r9939"
   width="540"
   height="360"
   xml:space="preserve"
   sodipodi:docname="ols.pdf"><metadata
     id="metadata2991"><rdf:RDF><cc:Work
         rdf:about=""><dc:format>image/svg+xml</dc:format><dc:type
           rdf:resource="http://purl.org/dc/dcmitype/StillImage" /><dc:title></dc:title></cc:Work></rdf:RDF></metadata><defs
     id="defs2989"><clipPath
       clipPathUnits="userSpaceOnUse"
       id="clipPath3005"><path
         d="m 54,259.199 334.801,0 L 388.801,36 54,36 54,259.199 z"
         id="path3007" /></clipPath><clipPath
       clipPathUnits="userSpaceOnUse"
       id="clipPath3013"><path
         d="M 0,0 432,0 432,288 0,288 0,0 z"
         id="path3015" /></clipPath><clipPath
       clipPathUnits="userSpaceOnUse"
       id="clipPath3033"><path
         d="M 0,0 432,0 432,288 0,288 0,0 z"
         id="path3035" /></clipPath><clipPath
       clipPathUnits="userSpaceOnUse"
       id="clipPath3053"><path
         d="M 0,0 432,0 432,288 0,288 0,0 z"
         id="path3055" /></clipPath><clipPath
       clipPathUnits="userSpaceOnUse"
       id="clipPath3069"><path
         d="M 0,0 432,0 432,288 0,288 0,0 z"
         id="path3071" /></clipPath><clipPath
       clipPathUnits="userSpaceOnUse"
       id="clipPath3085"><path
         d="M 0,0 432,0 432,288 0,288 0,0 z"
         id="path3087" /></clipPath><clipPath
       clipPathUnits="userSpaceOnUse"
       id="clipPath3101"><path
         d="M 0,0 432,0 432,288 0,288 0,0 z"
         id="path3103" /></clipPath></defs><sodipodi:namedview
     pagecolor="#ffffff"
     bordercolor="#666666"
     borderopacity="1"
     objecttolerance="10"
     gridtolerance="10"
     guidetolerance="10"
     inkscape:pageopacity="0"
     inkscape:pageshadow="2"
     inkscape:window-width="1366"
     inkscape:window-height="716"
     id="namedview2987"
     showgrid="false"
     inkscape:zoom="1.4897651"
     inkscape:cx="270"
     inkscape:cy="180"
     inkscape:window-x="-8"
     inkscape:window-y="-8"
     inkscape:window-maximized="1"
     inkscape:current-layer="g2993" /><g
     id="g2993"
     inkscape:groupmode="layer"
     inkscape:label="ols"
     transform="matrix(1.25,0,0,-1.25,0,360)"><g
       id="g2995"
       transform="matrix(0.77376499,0,0,0.77252193,54.236738,37.052821)"><path
         d="M 0,0 432,0 432,288 0,288 0,0 z"
         style="fill:#ffffff;fill-opacity:1;fill-rule:nonzero;stroke:none"
         id="path2997"
         inkscape:connector-curvature="0" /><path
         d="m 54,259.199 334.801,0 L 388.801,36 54,36 54,259.199 z"
         style="fill:#ffffff;fill-opacity:1;fill-rule:nonzero;stroke:none"
         id="path2999"
         inkscape:connector-curvature="0" /></g><g
       id="g3001"><g
         id="g3003"
         clip-path="url(#clipPath3005)"><g
           id="g3009"><g
             id="g3011" /><g
             id="g3017"><g
               clip-path="url(#clipPath3013)"
               id="g3019"><g
                 id="g3021"><path
                   d="m 107.563,232.164 4.472,4.473 m -4.472,0 4.472,-4.473"
                   style="fill:#000000;fill-opacity:1;fill-rule:nonzero;stroke:#000000;stroke-opacity:1;stroke-width:1;stroke-linecap:butt;stroke-linejoin:round;stroke-miterlimit:4;stroke-dasharray:none"
                   id="path3023" /><path
                   d="m 219.164,108.164 4.473,4.473 m -4.473,0 4.473,-4.473"
                   style="fill:#000000;fill-opacity:1;fill-rule:nonzero;stroke:#000000;stroke-opacity:1;stroke-width:1;stroke-linecap:butt;stroke-linejoin:round;stroke-miterlimit:4;stroke-dasharray:none"
                   id="path3025" /><path
                   d="m 330.766,108.164 4.468,4.473 m -4.468,0 4.468,-4.473"
                   style="fill:#000000;fill-opacity:1;fill-rule:nonzero;stroke:#000000;stroke-opacity:1;stroke-width:1;stroke-linecap:butt;stroke-linejoin:round;stroke-miterlimit:4;stroke-dasharray:none"
                   id="path3027" /></g></g></g></g><g
           id="g3029"><g
             id="g3031" /><g
             id="g3037"><g
               clip-path="url(#clipPath3033)"
               id="g3039"><g
                 id="g3041"><path
                   d="m 109.801,211.496 c 0.594,0 1.16,0.238 1.582,0.656 0.418,0.418 0.652,0.989 0.652,1.582 0,0.594 -0.234,1.161 -0.652,1.582 -0.422,0.418 -0.988,0.653 -1.582,0.653 -0.594,0 -1.164,-0.235 -1.582,-0.653 -0.418,-0.421 -0.656,-0.988 -0.656,-1.582 0,-0.593 0.238,-1.164 0.656,-1.582 0.418,-0.418 0.988,-0.656 1.582,-0.656 z"
                   style="fill:#ff0000;fill-opacity:1;fill-rule:nonzero;stroke:#ff0000;stroke-opacity:1;stroke-width:1;stroke-linecap:butt;stroke-linejoin:round;stroke-miterlimit:4;stroke-dasharray:none"
                   id="path3043" /><path
                   d="m 221.398,149.496 c 0.594,0 1.165,0.238 1.582,0.656 0.422,0.418 0.657,0.989 0.657,1.582 0,0.594 -0.235,1.161 -0.657,1.582 -0.417,0.418 -0.988,0.653 -1.582,0.653 -0.589,0 -1.16,-0.235 -1.578,-0.653 -0.422,-0.421 -0.656,-0.988 -0.656,-1.582 0,-0.593 0.234,-1.164 0.656,-1.582 0.418,-0.418 0.989,-0.656 1.578,-0.656 z"
                   style="fill:#ff0000;fill-opacity:1;fill-rule:nonzero;stroke:#ff0000;stroke-opacity:1;stroke-width:1;stroke-linecap:butt;stroke-linejoin:round;stroke-miterlimit:4;stroke-dasharray:none"
                   id="path3045" /><path
                   d="m 333,87.496 c 0.594,0 1.16,0.238 1.582,0.656 0.418,0.418 0.652,0.989 0.652,1.582 0,0.594 -0.234,1.161 -0.652,1.582 -0.422,0.418 -0.988,0.653 -1.582,0.653 -0.594,0 -1.16,-0.235 -1.582,-0.653 -0.418,-0.421 -0.652,-0.988 -0.652,-1.582 0,-0.593 0.234,-1.164 0.652,-1.582 0.422,-0.418 0.988,-0.656 1.582,-0.656 z"
                   style="fill:#ff0000;fill-opacity:1;fill-rule:nonzero;stroke:#ff0000;stroke-opacity:1;stroke-width:1;stroke-linecap:butt;stroke-linejoin:round;stroke-miterlimit:4;stroke-dasharray:none"
                   id="path3047" /></g></g></g></g><g
           id="g3049"><g
             id="g3051" /><g
             id="g3057"><g
               clip-path="url(#clipPath3053)"
               id="g3059"><g
                 id="g3061"><path
                   d="m 109.801,234.398 0,-20.664"
                   style="fill:none;stroke:#000000;stroke-opacity:1;stroke-width:1;stroke-linecap:butt;stroke-linejoin:round;stroke-miterlimit:4;stroke-dasharray:none"
                   id="path3063" /></g></g></g></g><g
           id="g3065"><g
             id="g3067" /><g
             id="g3073"><g
               clip-path="url(#clipPath3069)"
               id="g3075"><g
                 id="g3077"><path
                   d="m 221.398,110.398 0,41.336"
                   style="fill:none;stroke:#000000;stroke-opacity:1;stroke-width:1;stroke-linecap:butt;stroke-linejoin:round;stroke-miterlimit:4;stroke-dasharray:none"
                   id="path3079" /></g></g></g></g><g
           id="g3081"><g
             id="g3083" /><g
             id="g3089"><g
               clip-path="url(#clipPath3085)"
               id="g3091"><g
                 id="g3093"><path
                   d="m 333,110.398 0,-20.664"
                   style="fill:none;stroke:#000000;stroke-opacity:1;stroke-width:1;stroke-linecap:butt;stroke-linejoin:round;stroke-miterlimit:4;stroke-dasharray:none"
                   id="path3095" /></g></g></g></g><g
           id="g3097"><g
             id="g3099" /><g
             id="g3105"><g
               clip-path="url(#clipPath3101)"
               id="g3107"><g
                 id="g3109"><path
                   d="m 54,244.734 334.801,-186"
                   style="fill:none;stroke:#0000ff;stroke-opacity:1;stroke-width:1;stroke-linecap:square;stroke-linejoin:round;stroke-miterlimit:4;stroke-dasharray:none"
                   id="path3111" /></g></g></g></g></g></g><g
       id="g3113"><path
         d="m 54,259.199 334.801,0"
         style="fill:none;stroke:#000000;stroke-opacity:1;stroke-width:1;stroke-linecap:square;stroke-linejoin:miter;stroke-miterlimit:4;stroke-dasharray:none"
         id="path3115" /><path
         d="m 388.801,36 0,223.199"
         style="fill:none;stroke:#000000;stroke-opacity:1;stroke-width:1;stroke-linecap:square;stroke-linejoin:miter;stroke-miterlimit:4;stroke-dasharray:none"
         id="path3117" /><path
         d="m 54,36 334.801,0"
         style="fill:none;stroke:#000000;stroke-opacity:1;stroke-width:1;stroke-linecap:square;stroke-linejoin:miter;stroke-miterlimit:4;stroke-dasharray:none"
         id="path3119" /><path
         d="m 54,36 0,223.199"
         style="fill:none;stroke:#000000;stroke-opacity:1;stroke-width:1;stroke-linecap:square;stroke-linejoin:miter;stroke-miterlimit:4;stroke-dasharray:none"
         id="path3121" /><path
         d="m 54,36 0,4"
         style="fill:#000000;fill-opacity:1;fill-rule:nonzero;stroke:#000000;stroke-opacity:1;stroke-width:0.5;stroke-linecap:butt;stroke-linejoin:round;stroke-miterlimit:4;stroke-dasharray:none"
         id="path3123" /><path
         d="m 54,259.199 0,-4"
         style="fill:#000000;fill-opacity:1;fill-rule:nonzero;stroke:#000000;stroke-opacity:1;stroke-width:0.5;stroke-linecap:butt;stroke-linejoin:round;stroke-miterlimit:4;stroke-dasharray:none"
         id="path3125" /><path
         d="m 49.992,31.043 c -0.508,0 -0.887,-0.25 -1.144,-0.75 -0.254,-0.5 -0.383,-1.25 -0.383,-2.254 0,-1 0.129,-1.75 0.383,-2.25 0.257,-0.5 0.636,-0.75 1.144,-0.75 0.512,0 0.895,0.25 1.153,0.75 0.253,0.5 0.382,1.25 0.382,2.25 0,1.004 -0.129,1.754 -0.382,2.254 -0.258,0.5 -0.641,0.75 -1.153,0.75 m 0,0.781 c 0.821,0 1.442,-0.324 1.875,-0.972 0.43,-0.645 0.645,-1.582 0.645,-2.813 0,-1.226 -0.215,-2.164 -0.645,-2.812 -0.433,-0.645 -1.054,-0.969 -1.875,-0.969 -0.816,0 -1.441,0.324 -1.871,0.969 -0.43,0.648 -0.648,1.586 -0.648,2.812 0,1.231 0.218,2.168 0.648,2.813 0.43,0.648 1.055,0.972 1.871,0.972"
         style="fill:#000000;fill-opacity:1;fill-rule:nonzero;stroke:none"
         id="path3127" /><path
         d="m 54.246,25.641 1.031,0 0,-1.238 -1.031,0 0,1.238 z"
         style="fill:#000000;fill-opacity:1;fill-rule:nonzero;stroke:none"
         id="path3129" /><path
         d="m 57.438,31.691 3.871,0 0,-0.832 -2.969,0 0,-1.785 c 0.14,0.051 0.285,0.086 0.426,0.11 0.144,0.023 0.289,0.035 0.433,0.035 0.813,0 1.457,-0.223 1.934,-0.668 0.472,-0.446 0.711,-1.047 0.711,-1.809 0,-0.785 -0.242,-1.394 -0.731,-1.832 -0.488,-0.433 -1.179,-0.652 -2.066,-0.652 -0.309,0 -0.617,0.027 -0.938,0.078 -0.316,0.055 -0.644,0.133 -0.98,0.234 l 0,0.993 c 0.293,-0.157 0.594,-0.278 0.906,-0.356 0.313,-0.078 0.645,-0.117 0.992,-0.117 0.563,0 1.008,0.148 1.336,0.445 0.328,0.297 0.492,0.695 0.492,1.207 0,0.504 -0.164,0.906 -0.492,1.203 -0.328,0.297 -0.773,0.446 -1.336,0.446 -0.265,0 -0.527,-0.028 -0.789,-0.086 -0.261,-0.059 -0.531,-0.153 -0.8,-0.274 l 0,3.66 z"
         style="fill:#000000;fill-opacity:1;fill-rule:nonzero;stroke:none"
         id="path3131" /><path
         d="m 109.801,36 0,4"
         style="fill:#000000;fill-opacity:1;fill-rule:nonzero;stroke:#000000;stroke-opacity:1;stroke-width:0.5;stroke-linecap:butt;stroke-linejoin:round;stroke-miterlimit:4;stroke-dasharray:none"
         id="path3133" /><path
         d="m 109.801,259.199 0,-4"
         style="fill:#000000;fill-opacity:1;fill-rule:nonzero;stroke:#000000;stroke-opacity:1;stroke-width:0.5;stroke-linecap:butt;stroke-linejoin:round;stroke-miterlimit:4;stroke-dasharray:none"
         id="path3135" /><path
         d="m 103.969,25.23 1.613,0 0,5.563 -1.754,-0.352 0,0.899 1.742,0.351 0.989,0 0,-6.461 1.609,0 0,-0.828 -4.199,0 0,0.828 z"
         style="fill:#000000;fill-opacity:1;fill-rule:nonzero;stroke:none"
         id="path3137" /><path
         d="m 110.16,25.641 1.031,0 0,-1.238 -1.031,0 0,1.238 z"
         style="fill:#000000;fill-opacity:1;fill-rule:nonzero;stroke:none"
         id="path3139" /><path
         d="m 115.449,31.043 c -0.508,0 -0.89,-0.25 -1.144,-0.75 -0.258,-0.5 -0.383,-1.25 -0.383,-2.254 0,-1 0.125,-1.75 0.383,-2.25 0.254,-0.5 0.636,-0.75 1.144,-0.75 0.512,0 0.895,0.25 1.149,0.75 0.257,0.5 0.386,1.25 0.386,2.25 0,1.004 -0.129,1.754 -0.386,2.254 -0.254,0.5 -0.637,0.75 -1.149,0.75 m 0,0.781 c 0.817,0 1.442,-0.324 1.871,-0.972 0.434,-0.645 0.649,-1.582 0.649,-2.813 0,-1.226 -0.215,-2.164 -0.649,-2.812 -0.429,-0.645 -1.054,-0.969 -1.871,-0.969 -0.816,0 -1.441,0.324 -1.871,0.969 -0.433,0.648 -0.648,1.586 -0.648,2.812 0,1.231 0.215,2.168 0.648,2.813 0.43,0.648 1.055,0.972 1.871,0.972"
         style="fill:#000000;fill-opacity:1;fill-rule:nonzero;stroke:none"
         id="path3141" /><path
         d="m 165.602,36 0,4"
         style="fill:#000000;fill-opacity:1;fill-rule:nonzero;stroke:#000000;stroke-opacity:1;stroke-width:0.5;stroke-linecap:butt;stroke-linejoin:round;stroke-miterlimit:4;stroke-dasharray:none"
         id="path3143" /><path
         d="m 165.602,259.199 0,-4"
         style="fill:#000000;fill-opacity:1;fill-rule:nonzero;stroke:#000000;stroke-opacity:1;stroke-width:0.5;stroke-linecap:butt;stroke-linejoin:round;stroke-miterlimit:4;stroke-dasharray:none"
         id="path3145" /><path
         d="m 159.875,25.23 1.609,0 0,5.563 -1.75,-0.352 0,0.899 1.743,0.351 0.984,0 0,-6.461 1.613,0 0,-0.828 -4.199,0 0,0.828 z"
         style="fill:#000000;fill-opacity:1;fill-rule:nonzero;stroke:none"
         id="path3147" /><path
         d="m 166.066,25.641 1.031,0 0,-1.238 -1.031,0 0,1.238 z"
         style="fill:#000000;fill-opacity:1;fill-rule:nonzero;stroke:none"
         id="path3149" /><path
         d="m 169.254,31.691 3.871,0 0,-0.832 -2.969,0 0,-1.785 c 0.145,0.051 0.289,0.086 0.43,0.11 0.144,0.023 0.289,0.035 0.434,0.035 0.812,0 1.457,-0.223 1.929,-0.668 0.477,-0.446 0.715,-1.047 0.715,-1.809 0,-0.785 -0.242,-1.394 -0.734,-1.832 -0.489,-0.433 -1.176,-0.652 -2.063,-0.652 -0.308,0 -0.621,0.027 -0.937,0.078 -0.317,0.055 -0.645,0.133 -0.985,0.234 l 0,0.993 c 0.293,-0.157 0.598,-0.278 0.91,-0.356 0.313,-0.078 0.641,-0.117 0.989,-0.117 0.566,0 1.011,0.148 1.34,0.445 0.328,0.297 0.492,0.695 0.492,1.207 0,0.504 -0.164,0.906 -0.492,1.203 -0.329,0.297 -0.774,0.446 -1.34,0.446 -0.262,0 -0.524,-0.028 -0.789,-0.086 -0.258,-0.059 -0.528,-0.153 -0.801,-0.274 l 0,3.66 z"
         style="fill:#000000;fill-opacity:1;fill-rule:nonzero;stroke:none"
         id="path3151" /><path
         d="m 221.398,36 0,4"
         style="fill:#000000;fill-opacity:1;fill-rule:nonzero;stroke:#000000;stroke-opacity:1;stroke-width:0.5;stroke-linecap:butt;stroke-linejoin:round;stroke-miterlimit:4;stroke-dasharray:none"
         id="path3153" /><path
         d="m 221.398,259.199 0,-4"
         style="fill:#000000;fill-opacity:1;fill-rule:nonzero;stroke:#000000;stroke-opacity:1;stroke-width:0.5;stroke-linecap:butt;stroke-linejoin:round;stroke-miterlimit:4;stroke-dasharray:none"
         id="path3155" /><path
         d="m 216.066,25.23 3.442,0 0,-0.828 -4.629,0 0,0.828 c 0.375,0.387 0.883,0.907 1.531,1.559 0.645,0.656 1.051,1.074 1.219,1.266 0.316,0.355 0.535,0.652 0.66,0.898 0.125,0.246 0.188,0.488 0.188,0.727 0,0.386 -0.133,0.703 -0.407,0.945 -0.273,0.246 -0.625,0.367 -1.062,0.367 -0.309,0 -0.637,-0.051 -0.981,-0.16 -0.343,-0.105 -0.707,-0.269 -1.097,-0.488 l 0,0.996 c 0.394,0.16 0.765,0.281 1.109,0.363 0.348,0.078 0.664,0.121 0.949,0.121 0.758,0 1.36,-0.191 1.809,-0.566 0.449,-0.379 0.672,-0.883 0.672,-1.516 0,-0.297 -0.055,-0.582 -0.168,-0.851 -0.113,-0.27 -0.317,-0.582 -0.613,-0.95 -0.083,-0.093 -0.34,-0.367 -0.778,-0.816 -0.433,-0.453 -1.051,-1.082 -1.844,-1.895"
         style="fill:#000000;fill-opacity:1;fill-rule:nonzero;stroke:none"
         id="path3157" /><path
         d="m 221.578,25.641 1.031,0 0,-1.238 -1.031,0 0,1.238 z"
         style="fill:#000000;fill-opacity:1;fill-rule:nonzero;stroke:none"
         id="path3159" /><path
         d="m 226.867,31.043 c -0.508,0 -0.89,-0.25 -1.148,-0.75 -0.254,-0.5 -0.383,-1.25 -0.383,-2.254 0,-1 0.129,-1.75 0.383,-2.25 0.258,-0.5 0.64,-0.75 1.148,-0.75 0.512,0 0.895,0.25 1.149,0.75 0.257,0.5 0.382,1.25 0.382,2.25 0,1.004 -0.125,1.754 -0.382,2.254 -0.254,0.5 -0.637,0.75 -1.149,0.75 m 0,0.781 c 0.817,0 1.442,-0.324 1.871,-0.972 0.434,-0.645 0.649,-1.582 0.649,-2.813 0,-1.226 -0.215,-2.164 -0.649,-2.812 -0.429,-0.645 -1.054,-0.969 -1.871,-0.969 -0.816,0 -1.441,0.324 -1.875,0.969 -0.429,0.648 -0.644,1.586 -0.644,2.812 0,1.231 0.215,2.168 0.644,2.813 0.434,0.648 1.059,0.972 1.875,0.972"
         style="fill:#000000;fill-opacity:1;fill-rule:nonzero;stroke:none"
         id="path3161" /><path
         d="m 277.199,36 0,4"
         style="fill:#000000;fill-opacity:1;fill-rule:nonzero;stroke:#000000;stroke-opacity:1;stroke-width:0.5;stroke-linecap:butt;stroke-linejoin:round;stroke-miterlimit:4;stroke-dasharray:none"
         id="path3163" /><path
         d="m 277.199,259.199 0,-4"
         style="fill:#000000;fill-opacity:1;fill-rule:nonzero;stroke:#000000;stroke-opacity:1;stroke-width:0.5;stroke-linecap:butt;stroke-linejoin:round;stroke-miterlimit:4;stroke-dasharray:none"
         id="path3165" /><path
         d="m 271.969,25.23 3.445,0 0,-0.828 -4.629,0 0,0.828 c 0.375,0.387 0.883,0.907 1.528,1.559 0.648,0.656 1.054,1.074 1.218,1.266 0.317,0.355 0.539,0.652 0.664,0.898 0.125,0.246 0.188,0.488 0.188,0.727 0,0.386 -0.137,0.703 -0.406,0.945 -0.274,0.246 -0.629,0.367 -1.063,0.367 -0.312,0 -0.637,-0.051 -0.98,-0.16 -0.344,-0.105 -0.711,-0.269 -1.102,-0.488 l 0,0.996 c 0.398,0.16 0.77,0.281 1.113,0.363 0.348,0.078 0.66,0.121 0.95,0.121 0.753,0 1.355,-0.191 1.804,-0.566 0.449,-0.379 0.676,-0.883 0.676,-1.516 0,-0.297 -0.059,-0.582 -0.172,-0.851 -0.109,-0.27 -0.312,-0.582 -0.609,-0.95 -0.082,-0.093 -0.34,-0.367 -0.778,-0.816 -0.437,-0.453 -1.05,-1.082 -1.847,-1.895"
         style="fill:#000000;fill-opacity:1;fill-rule:nonzero;stroke:none"
         id="path3167" /><path
         d="m 277.484,25.641 1.031,0 0,-1.238 -1.031,0 0,1.238 z"
         style="fill:#000000;fill-opacity:1;fill-rule:nonzero;stroke:none"
         id="path3169" /><path
         d="m 280.672,31.691 3.871,0 0,-0.832 -2.969,0 0,-1.785 c 0.145,0.051 0.285,0.086 0.43,0.11 0.144,0.023 0.285,0.035 0.43,0.035 0.816,0 1.457,-0.223 1.933,-0.668 0.477,-0.446 0.715,-1.047 0.715,-1.809 0,-0.785 -0.246,-1.394 -0.734,-1.832 -0.489,-0.433 -1.176,-0.652 -2.067,-0.652 -0.304,0 -0.617,0.027 -0.933,0.078 -0.317,0.055 -0.645,0.133 -0.985,0.234 l 0,0.993 c 0.293,-0.157 0.598,-0.278 0.91,-0.356 0.313,-0.078 0.641,-0.117 0.989,-0.117 0.566,0 1.011,0.148 1.34,0.445 0.328,0.297 0.492,0.695 0.492,1.207 0,0.504 -0.164,0.906 -0.492,1.203 -0.329,0.297 -0.774,0.446 -1.34,0.446 -0.262,0 -0.528,-0.028 -0.789,-0.086 -0.262,-0.059 -0.528,-0.153 -0.801,-0.274 l 0,3.66 z"
         style="fill:#000000;fill-opacity:1;fill-rule:nonzero;stroke:none"
         id="path3171" /><path
         d="m 333,36 0,4"
         style="fill:#000000;fill-opacity:1;fill-rule:nonzero;stroke:#000000;stroke-opacity:1;stroke-width:0.5;stroke-linecap:butt;stroke-linejoin:round;stroke-miterlimit:4;stroke-dasharray:none"
         id="path3173" /><path
         d="m 333,259.199 0,-4"
         style="fill:#000000;fill-opacity:1;fill-rule:nonzero;stroke:#000000;stroke-opacity:1;stroke-width:0.5;stroke-linecap:butt;stroke-linejoin:round;stroke-miterlimit:4;stroke-dasharray:none"
         id="path3175" /><path
         d="m 329.82,28.332 c 0.473,-0.102 0.84,-0.312 1.106,-0.629 0.265,-0.32 0.398,-0.715 0.398,-1.183 0,-0.719 -0.25,-1.274 -0.742,-1.668 -0.496,-0.395 -1.199,-0.594 -2.109,-0.594 -0.309,0 -0.621,0.031 -0.946,0.094 -0.324,0.058 -0.66,0.148 -1.004,0.269 l 0,0.953 c 0.274,-0.16 0.575,-0.281 0.899,-0.363 0.324,-0.078 0.664,-0.121 1.019,-0.121 0.622,0 1.09,0.121 1.414,0.367 0.325,0.242 0.485,0.598 0.485,1.063 0,0.429 -0.149,0.765 -0.449,1.007 -0.301,0.243 -0.719,0.364 -1.258,0.364 l -0.848,0 0,0.812 0.887,0 c 0.484,0 0.855,0.098 1.113,0.289 0.258,0.196 0.387,0.473 0.387,0.84 0,0.375 -0.133,0.66 -0.399,0.859 -0.265,0.204 -0.644,0.301 -1.14,0.301 -0.27,0 -0.559,-0.027 -0.871,-0.086 -0.309,-0.058 -0.649,-0.152 -1.02,-0.273 l 0,0.879 c 0.375,0.101 0.727,0.179 1.055,0.234 0.328,0.051 0.633,0.078 0.926,0.078 0.746,0 1.34,-0.172 1.773,-0.511 0.438,-0.34 0.656,-0.801 0.656,-1.379 0,-0.403 -0.117,-0.746 -0.347,-1.024 -0.231,-0.277 -0.559,-0.469 -0.985,-0.578"
         style="fill:#000000;fill-opacity:1;fill-rule:nonzero;stroke:none"
         id="path3177" /><path
         d="m 333.191,25.641 1.031,0 0,-1.238 -1.031,0 0,1.238 z"
         style="fill:#000000;fill-opacity:1;fill-rule:nonzero;stroke:none"
         id="path3179" /><path
         d="m 338.48,31.043 c -0.507,0 -0.886,-0.25 -1.144,-0.75 -0.254,-0.5 -0.383,-1.25 -0.383,-2.254 0,-1 0.129,-1.75 0.383,-2.25 0.258,-0.5 0.637,-0.75 1.144,-0.75 0.512,0 0.895,0.25 1.149,0.75 0.258,0.5 0.387,1.25 0.387,2.25 0,1.004 -0.129,1.754 -0.387,2.254 -0.254,0.5 -0.637,0.75 -1.149,0.75 m 0,0.781 c 0.817,0 1.442,-0.324 1.875,-0.972 0.43,-0.645 0.645,-1.582 0.645,-2.813 0,-1.226 -0.215,-2.164 -0.645,-2.812 -0.433,-0.645 -1.058,-0.969 -1.875,-0.969 -0.816,0 -1.441,0.324 -1.871,0.969 -0.429,0.648 -0.648,1.586 -0.648,2.812 0,1.231 0.219,2.168 0.648,2.813 0.43,0.648 1.055,0.972 1.871,0.972"
         style="fill:#000000;fill-opacity:1;fill-rule:nonzero;stroke:none"
         id="path3181" /><path
         d="m 388.801,36 0,4"
         style="fill:#000000;fill-opacity:1;fill-rule:nonzero;stroke:#000000;stroke-opacity:1;stroke-width:0.5;stroke-linecap:butt;stroke-linejoin:round;stroke-miterlimit:4;stroke-dasharray:none"
         id="path3183" /><path
         d="m 388.801,259.199 0,-4"
         style="fill:#000000;fill-opacity:1;fill-rule:nonzero;stroke:#000000;stroke-opacity:1;stroke-width:0.5;stroke-linecap:butt;stroke-linejoin:round;stroke-miterlimit:4;stroke-dasharray:none"
         id="path3185" /><path
         d="m 385.723,28.332 c 0.472,-0.102 0.84,-0.312 1.105,-0.629 0.266,-0.32 0.399,-0.715 0.399,-1.183 0,-0.719 -0.247,-1.274 -0.743,-1.668 -0.492,-0.395 -1.195,-0.594 -2.109,-0.594 -0.305,0 -0.617,0.031 -0.941,0.094 -0.325,0.058 -0.661,0.148 -1.004,0.269 l 0,0.953 c 0.273,-0.16 0.57,-0.281 0.894,-0.363 0.328,-0.078 0.668,-0.121 1.024,-0.121 0.617,0 1.09,0.121 1.414,0.367 0.324,0.242 0.484,0.598 0.484,1.063 0,0.429 -0.152,0.765 -0.453,1.007 -0.301,0.243 -0.719,0.364 -1.254,0.364 l -0.851,0 0,0.812 0.89,0 c 0.485,0 0.856,0.098 1.113,0.289 0.254,0.196 0.383,0.473 0.383,0.84 0,0.375 -0.133,0.66 -0.398,0.859 -0.262,0.204 -0.645,0.301 -1.137,0.301 -0.273,0 -0.562,-0.027 -0.871,-0.086 -0.309,-0.058 -0.648,-0.152 -1.02,-0.273 l 0,0.879 c 0.375,0.101 0.727,0.179 1.051,0.234 0.328,0.051 0.637,0.078 0.926,0.078 0.75,0 1.344,-0.172 1.777,-0.511 0.438,-0.34 0.657,-0.801 0.657,-1.379 0,-0.403 -0.118,-0.746 -0.348,-1.024 -0.231,-0.277 -0.563,-0.469 -0.988,-0.578"
         style="fill:#000000;fill-opacity:1;fill-rule:nonzero;stroke:none"
         id="path3187" /><path
         d="m 389.098,25.641 1.031,0 0,-1.238 -1.031,0 0,1.238 z"
         style="fill:#000000;fill-opacity:1;fill-rule:nonzero;stroke:none"
         id="path3189" /><path
         d="m 392.289,31.691 3.871,0 0,-0.832 -2.969,0 0,-1.785 c 0.141,0.051 0.286,0.086 0.426,0.11 0.145,0.023 0.289,0.035 0.434,0.035 0.812,0 1.457,-0.223 1.933,-0.668 0.473,-0.446 0.711,-1.047 0.711,-1.809 0,-0.785 -0.242,-1.394 -0.73,-1.832 -0.488,-0.433 -1.18,-0.652 -2.067,-0.652 -0.308,0 -0.617,0.027 -0.937,0.078 -0.316,0.055 -0.645,0.133 -0.981,0.234 l 0,0.993 c 0.293,-0.157 0.594,-0.278 0.907,-0.356 0.312,-0.078 0.644,-0.117 0.992,-0.117 0.562,0 1.008,0.148 1.336,0.445 0.328,0.297 0.492,0.695 0.492,1.207 0,0.504 -0.164,0.906 -0.492,1.203 -0.328,0.297 -0.774,0.446 -1.336,0.446 -0.266,0 -0.527,-0.028 -0.789,-0.086 -0.262,-0.059 -0.531,-0.153 -0.801,-0.274 l 0,3.66 z"
         style="fill:#000000;fill-opacity:1;fill-rule:nonzero;stroke:none"
         id="path3191" /><path
         d="m 54,48.398 4,0"
         style="fill:#000000;fill-opacity:1;fill-rule:nonzero;stroke:#000000;stroke-opacity:1;stroke-width:0.5;stroke-linecap:butt;stroke-linejoin:round;stroke-miterlimit:4;stroke-dasharray:none"
         id="path3193" /><path
         d="m 388.801,48.398 -4,0"
         style="fill:#000000;fill-opacity:1;fill-rule:nonzero;stroke:#000000;stroke-opacity:1;stroke-width:0.5;stroke-linecap:butt;stroke-linejoin:round;stroke-miterlimit:4;stroke-dasharray:none"
         id="path3195" /><path
         d="m 28.711,49.191 6.258,0 0,-0.832 -6.258,0 0,0.832 z"
         style="fill:#000000;fill-opacity:1;fill-rule:nonzero;stroke:none"
         id="path3197" /><path
         d="m 39.207,52.281 c -0.508,0 -0.891,-0.25 -1.144,-0.75 -0.258,-0.5 -0.383,-1.25 -0.383,-2.254 0,-1 0.125,-1.746 0.383,-2.246 0.253,-0.5 0.636,-0.75 1.144,-0.75 0.512,0 0.895,0.25 1.148,0.75 0.258,0.5 0.387,1.246 0.387,2.246 0,1.004 -0.129,1.754 -0.387,2.254 -0.253,0.5 -0.636,0.75 -1.148,0.75 m 0,0.782 c 0.816,0 1.441,-0.325 1.875,-0.969 0.43,-0.649 0.645,-1.586 0.645,-2.817 0,-1.226 -0.215,-2.164 -0.645,-2.808 C 40.648,45.82 40.023,45.5 39.207,45.5 c -0.816,0 -1.441,0.32 -1.871,0.969 -0.434,0.644 -0.648,1.582 -0.648,2.808 0,1.231 0.214,2.168 0.648,2.817 0.43,0.644 1.055,0.969 1.871,0.969"
         style="fill:#000000;fill-opacity:1;fill-rule:nonzero;stroke:none"
         id="path3199" /><path
         d="m 43.461,46.883 1.031,0 0,-1.242 -1.031,0 0,1.242 z"
         style="fill:#000000;fill-opacity:1;fill-rule:nonzero;stroke:none"
         id="path3201" /><path
         d="m 46.648,52.93 3.872,0 0,-0.828 -2.969,0 0,-1.789 c 0.144,0.05 0.289,0.085 0.429,0.109 0.145,0.027 0.29,0.039 0.434,0.039 0.813,0 1.457,-0.223 1.93,-0.672 0.476,-0.445 0.715,-1.047 0.715,-1.809 0,-0.785 -0.243,-1.394 -0.731,-1.832 -0.492,-0.433 -1.18,-0.648 -2.066,-0.648 -0.309,0 -0.621,0.023 -0.938,0.078 -0.316,0.051 -0.644,0.129 -0.98,0.235 l 0,0.992 c 0.289,-0.16 0.594,-0.282 0.906,-0.36 0.313,-0.078 0.641,-0.117 0.988,-0.117 0.567,0 1.012,0.149 1.34,0.445 0.328,0.297 0.492,0.7 0.492,1.207 0,0.508 -0.164,0.907 -0.492,1.204 -0.328,0.296 -0.773,0.445 -1.34,0.445 -0.261,0 -0.523,-0.027 -0.785,-0.086 -0.262,-0.059 -0.531,-0.148 -0.805,-0.273 l 0,3.66 z"
         style="fill:#000000;fill-opacity:1;fill-rule:nonzero;stroke:none"
         id="path3203" /><path
         d="m 54,110.398 4,0"
         style="fill:#000000;fill-opacity:1;fill-rule:nonzero;stroke:#000000;stroke-opacity:1;stroke-width:0.5;stroke-linecap:butt;stroke-linejoin:round;stroke-miterlimit:4;stroke-dasharray:none"
         id="path3205" /><path
         d="m 388.801,110.398 -4,0"
         style="fill:#000000;fill-opacity:1;fill-rule:nonzero;stroke:#000000;stroke-opacity:1;stroke-width:0.5;stroke-linecap:butt;stroke-linejoin:round;stroke-miterlimit:4;stroke-dasharray:none"
         id="path3207" /><path
         d="m 38.598,114.281 c -0.508,0 -0.887,-0.25 -1.145,-0.75 -0.254,-0.5 -0.383,-1.25 -0.383,-2.254 0,-1 0.129,-1.746 0.383,-2.246 0.258,-0.5 0.637,-0.75 1.145,-0.75 0.511,0 0.894,0.25 1.152,0.75 0.254,0.5 0.383,1.246 0.383,2.246 0,1.004 -0.129,1.754 -0.383,2.254 -0.258,0.5 -0.641,0.75 -1.152,0.75 m 0,0.782 c 0.82,0 1.441,-0.325 1.875,-0.969 0.429,-0.649 0.644,-1.586 0.644,-2.817 0,-1.226 -0.215,-2.164 -0.644,-2.808 -0.434,-0.649 -1.055,-0.969 -1.875,-0.969 -0.817,0 -1.442,0.32 -1.871,0.969 -0.43,0.644 -0.649,1.582 -0.649,2.808 0,1.231 0.219,2.168 0.649,2.817 0.429,0.644 1.054,0.969 1.871,0.969"
         style="fill:#000000;fill-opacity:1;fill-rule:nonzero;stroke:none"
         id="path3209" /><path
         d="m 42.852,108.883 1.031,0 0,-1.242 -1.031,0 0,1.242 z"
         style="fill:#000000;fill-opacity:1;fill-rule:nonzero;stroke:none"
         id="path3211" /><path
         d="m 48.141,114.281 c -0.508,0 -0.891,-0.25 -1.149,-0.75 -0.254,-0.5 -0.383,-1.25 -0.383,-2.254 0,-1 0.129,-1.746 0.383,-2.246 0.258,-0.5 0.641,-0.75 1.149,-0.75 0.511,0 0.894,0.25 1.148,0.75 0.258,0.5 0.383,1.246 0.383,2.246 0,1.004 -0.125,1.754 -0.383,2.254 -0.254,0.5 -0.637,0.75 -1.148,0.75 m 0,0.782 c 0.816,0 1.441,-0.325 1.871,-0.969 0.433,-0.649 0.648,-1.586 0.648,-2.817 0,-1.226 -0.215,-2.164 -0.648,-2.808 -0.43,-0.649 -1.055,-0.969 -1.871,-0.969 -0.817,0 -1.442,0.32 -1.875,0.969 -0.43,0.644 -0.645,1.582 -0.645,2.808 0,1.231 0.215,2.168 0.645,2.817 0.433,0.644 1.058,0.969 1.875,0.969"
         style="fill:#000000;fill-opacity:1;fill-rule:nonzero;stroke:none"
         id="path3213" /><path
         d="m 54,172.398 4,0"
         style="fill:#000000;fill-opacity:1;fill-rule:nonzero;stroke:#000000;stroke-opacity:1;stroke-width:0.5;stroke-linecap:butt;stroke-linejoin:round;stroke-miterlimit:4;stroke-dasharray:none"
         id="path3215" /><path
         d="m 388.801,172.398 -4,0"
         style="fill:#000000;fill-opacity:1;fill-rule:nonzero;stroke:#000000;stroke-opacity:1;stroke-width:0.5;stroke-linecap:butt;stroke-linejoin:round;stroke-miterlimit:4;stroke-dasharray:none"
         id="path3217" /><path
         d="m 38.809,176.281 c -0.508,0 -0.891,-0.25 -1.145,-0.75 -0.258,-0.5 -0.383,-1.25 -0.383,-2.254 0,-1 0.125,-1.746 0.383,-2.246 0.254,-0.5 0.637,-0.75 1.145,-0.75 0.511,0 0.894,0.25 1.148,0.75 0.258,0.5 0.387,1.246 0.387,2.246 0,1.004 -0.129,1.754 -0.387,2.254 -0.254,0.5 -0.637,0.75 -1.148,0.75 m 0,0.782 c 0.816,0 1.441,-0.325 1.871,-0.969 0.433,-0.649 0.648,-1.586 0.648,-2.817 0,-1.226 -0.215,-2.164 -0.648,-2.808 -0.43,-0.649 -1.055,-0.969 -1.871,-0.969 -0.817,0 -1.442,0.32 -1.871,0.969 -0.434,0.644 -0.649,1.582 -0.649,2.808 0,1.231 0.215,2.168 0.649,2.817 0.429,0.644 1.054,0.969 1.871,0.969"
         style="fill:#000000;fill-opacity:1;fill-rule:nonzero;stroke:none"
         id="path3219" /><path
         d="m 43.063,170.883 1.031,0 0,-1.242 -1.031,0 0,1.242 z"
         style="fill:#000000;fill-opacity:1;fill-rule:nonzero;stroke:none"
         id="path3221" /><path
         d="m 46.25,176.93 3.871,0 0,-0.828 -2.969,0 0,-1.789 c 0.145,0.05 0.286,0.085 0.43,0.109 0.145,0.027 0.285,0.039 0.43,0.039 0.816,0 1.457,-0.223 1.933,-0.672 0.477,-0.445 0.715,-1.047 0.715,-1.809 0,-0.785 -0.246,-1.394 -0.734,-1.832 -0.488,-0.433 -1.176,-0.648 -2.067,-0.648 -0.304,0 -0.617,0.023 -0.933,0.078 -0.317,0.051 -0.645,0.129 -0.985,0.235 l 0,0.992 c 0.293,-0.16 0.598,-0.282 0.911,-0.36 0.312,-0.078 0.64,-0.117 0.988,-0.117 0.566,0 1.012,0.149 1.34,0.445 0.328,0.297 0.492,0.7 0.492,1.207 0,0.508 -0.164,0.907 -0.492,1.204 -0.328,0.296 -0.774,0.445 -1.34,0.445 -0.262,0 -0.527,-0.027 -0.789,-0.086 -0.262,-0.059 -0.528,-0.148 -0.801,-0.273 l 0,3.66 z"
         style="fill:#000000;fill-opacity:1;fill-rule:nonzero;stroke:none"
         id="path3223" /><path
         d="m 54,234.398 4,0"
         style="fill:#000000;fill-opacity:1;fill-rule:nonzero;stroke:#000000;stroke-opacity:1;stroke-width:0.5;stroke-linecap:butt;stroke-linejoin:round;stroke-miterlimit:4;stroke-dasharray:none"
         id="path3225" /><path
         d="m 388.801,234.398 -4,0"
         style="fill:#000000;fill-opacity:1;fill-rule:nonzero;stroke:#000000;stroke-opacity:1;stroke-width:0.5;stroke-linecap:butt;stroke-linejoin:round;stroke-miterlimit:4;stroke-dasharray:none"
         id="path3227" /><path
         d="m 37.102,232.469 1.609,0 0,5.562 -1.754,-0.351 0,0.898 1.746,0.352 0.985,0 0,-6.461 1.609,0 0,-0.828 -4.195,0 0,0.828 z"
         style="fill:#000000;fill-opacity:1;fill-rule:nonzero;stroke:none"
         id="path3229" /><path
         d="m 43.289,232.883 1.031,0 0,-1.242 -1.031,0 0,1.242 z"
         style="fill:#000000;fill-opacity:1;fill-rule:nonzero;stroke:none"
         id="path3231" /><path
         d="m 48.578,238.281 c -0.508,0 -0.89,-0.25 -1.144,-0.75 -0.254,-0.5 -0.383,-1.25 -0.383,-2.254 0,-1 0.129,-1.746 0.383,-2.246 0.254,-0.5 0.636,-0.75 1.144,-0.75 0.512,0 0.895,0.25 1.149,0.75 0.257,0.5 0.386,1.246 0.386,2.246 0,1.004 -0.129,1.754 -0.386,2.254 -0.254,0.5 -0.637,0.75 -1.149,0.75 m 0,0.782 c 0.817,0 1.442,-0.325 1.875,-0.969 0.43,-0.649 0.645,-1.586 0.645,-2.817 0,-1.226 -0.215,-2.164 -0.645,-2.808 -0.433,-0.649 -1.058,-0.969 -1.875,-0.969 -0.816,0 -1.441,0.32 -1.871,0.969 -0.434,0.644 -0.648,1.582 -0.648,2.808 0,1.231 0.214,2.168 0.648,2.817 0.43,0.644 1.055,0.969 1.871,0.969"
         style="fill:#000000;fill-opacity:1;fill-rule:nonzero;stroke:none"
         id="path3233" /><path
         d="m 104.641,241.191 c 0.191,-0.144 0.457,-0.218 0.8,-0.218 0.332,0 0.625,0.16 0.879,0.48 0.258,0.32 0.43,0.668 0.524,1.051 l 0.726,2.836 c 0.118,0.515 0.176,0.867 0.176,1.055 0,0.265 -0.074,0.496 -0.223,0.695 -0.148,0.199 -0.355,0.297 -0.625,0.297 -0.335,0 -0.656,-0.106 -0.953,-0.317 -0.297,-0.211 -0.547,-0.48 -0.75,-0.804 -0.203,-0.325 -0.343,-0.657 -0.429,-0.989 -0.02,-0.066 -0.059,-0.101 -0.125,-0.101 l -0.196,0 c -0.082,0 -0.125,0.051 -0.125,0.148 l 0,0.047 c 0.106,0.395 0.282,0.781 0.532,1.16 0.25,0.379 0.554,0.684 0.918,0.918 0.363,0.235 0.75,0.352 1.164,0.352 0.386,0 0.742,-0.106 1.054,-0.313 0.317,-0.211 0.539,-0.492 0.668,-0.851 0.184,0.328 0.418,0.601 0.699,0.824 0.286,0.227 0.594,0.34 0.934,0.34 0.231,0 0.465,-0.043 0.703,-0.125 0.238,-0.078 0.438,-0.203 0.586,-0.367 0.152,-0.168 0.231,-0.375 0.231,-0.625 0,-0.27 -0.09,-0.504 -0.266,-0.7 -0.172,-0.195 -0.395,-0.293 -0.664,-0.293 -0.172,0 -0.316,0.055 -0.434,0.164 -0.113,0.11 -0.172,0.247 -0.172,0.415 0,0.222 0.079,0.418 0.231,0.589 0.156,0.168 0.34,0.27 0.555,0.301 -0.196,0.153 -0.461,0.227 -0.801,0.227 -0.34,0 -0.641,-0.16 -0.895,-0.477 -0.25,-0.32 -0.429,-0.672 -0.535,-1.062 l -0.699,-2.828 c -0.117,-0.43 -0.176,-0.782 -0.176,-1.055 0,-0.274 0.078,-0.504 0.231,-0.699 0.152,-0.196 0.359,-0.293 0.617,-0.293 0.5,0 0.945,0.218 1.336,0.66 0.394,0.441 0.652,0.922 0.777,1.449 0.024,0.063 0.063,0.094 0.125,0.094 l 0.199,0 c 0.039,0 0.075,-0.016 0.098,-0.043 0.027,-0.028 0.043,-0.063 0.043,-0.098 0,-0.012 -0.008,-0.027 -0.016,-0.047 -0.152,-0.636 -0.472,-1.199 -0.957,-1.695 -0.484,-0.496 -1.027,-0.742 -1.64,-0.742 -0.387,0 -0.743,0.105 -1.055,0.312 -0.316,0.215 -0.539,0.5 -0.672,0.86 -0.168,-0.313 -0.398,-0.586 -0.691,-0.825 -0.293,-0.23 -0.606,-0.347 -0.942,-0.347 -0.226,0 -0.465,0.039 -0.707,0.121 -0.242,0.082 -0.437,0.203 -0.59,0.371 -0.148,0.168 -0.226,0.379 -0.226,0.633 0,0.25 0.09,0.476 0.262,0.683 0.175,0.204 0.394,0.309 0.656,0.309 0.176,0 0.324,-0.055 0.445,-0.16 0.117,-0.106 0.18,-0.246 0.18,-0.418 0,-0.227 -0.078,-0.422 -0.227,-0.586 -0.148,-0.168 -0.332,-0.274 -0.558,-0.313"
         style="fill:#000000;fill-opacity:1;fill-rule:nonzero;stroke:none"
         id="path3235" /><path
         d="m 113.563,236.648 0,0.395 c 0.933,0 1.402,0.117 1.402,0.355 l 0,5.879 c -0.387,-0.187 -0.875,-0.281 -1.469,-0.281 l 0,0.395 c 0.918,0 1.609,0.238 2.074,0.718 l 0.16,0 c 0.024,0 0.047,-0.011 0.071,-0.031 0.027,-0.019 0.039,-0.043 0.039,-0.07 l 0,-6.61 c 0,-0.238 0.465,-0.355 1.398,-0.355 l 0,-0.395 -3.675,0 z"
         style="fill:#000000;fill-opacity:1;fill-rule:nonzero;stroke:none"
         id="path3237" /><path
         d="m 216.242,98.59 c 0.188,-0.145 0.453,-0.219 0.797,-0.219 0.332,0 0.629,0.16 0.883,0.481 0.254,0.32 0.43,0.671 0.523,1.05 l 0.727,2.836 c 0.113,0.516 0.172,0.867 0.172,1.059 0,0.262 -0.074,0.496 -0.223,0.691 -0.148,0.2 -0.355,0.301 -0.621,0.301 -0.34,0 -0.656,-0.105 -0.953,-0.32 -0.297,-0.211 -0.547,-0.481 -0.75,-0.805 -0.203,-0.324 -0.348,-0.652 -0.43,-0.988 -0.019,-0.067 -0.062,-0.102 -0.125,-0.102 l -0.195,0 c -0.082,0 -0.125,0.051 -0.125,0.153 l 0,0.043 c 0.101,0.398 0.281,0.785 0.531,1.16 0.25,0.379 0.555,0.683 0.918,0.918 0.363,0.234 0.75,0.351 1.16,0.351 0.391,0 0.742,-0.101 1.059,-0.312 0.316,-0.207 0.539,-0.492 0.668,-0.848 0.183,0.324 0.414,0.602 0.699,0.824 0.285,0.223 0.594,0.336 0.934,0.336 0.23,0 0.464,-0.039 0.703,-0.121 0.238,-0.082 0.433,-0.203 0.586,-0.371 0.152,-0.168 0.226,-0.375 0.226,-0.625 0,-0.269 -0.086,-0.504 -0.261,-0.699 -0.176,-0.195 -0.399,-0.293 -0.668,-0.293 -0.172,0 -0.317,0.055 -0.43,0.164 -0.113,0.109 -0.172,0.25 -0.172,0.418 0,0.223 0.074,0.418 0.23,0.586 0.153,0.168 0.34,0.269 0.551,0.301 -0.191,0.152 -0.457,0.23 -0.797,0.23 -0.343,0 -0.64,-0.16 -0.894,-0.48 -0.254,-0.317 -0.43,-0.672 -0.535,-1.063 l -0.703,-2.824 c -0.114,-0.43 -0.172,-0.781 -0.172,-1.059 0,-0.269 0.078,-0.504 0.23,-0.699 0.153,-0.195 0.36,-0.293 0.613,-0.293 0.5,0 0.946,0.223 1.34,0.66 0.391,0.442 0.653,0.926 0.778,1.453 0.019,0.059 0.062,0.09 0.125,0.09 l 0.195,0 c 0.043,0 0.074,-0.011 0.102,-0.043 0.027,-0.027 0.039,-0.058 0.039,-0.097 0,-0.008 -0.004,-0.024 -0.016,-0.047 -0.152,-0.633 -0.469,-1.199 -0.953,-1.696 -0.485,-0.492 -1.031,-0.742 -1.641,-0.742 -0.39,0 -0.742,0.106 -1.058,0.317 -0.313,0.211 -0.539,0.496 -0.668,0.855 -0.168,-0.312 -0.399,-0.586 -0.696,-0.82 -0.293,-0.235 -0.605,-0.352 -0.937,-0.352 -0.231,0 -0.465,0.043 -0.707,0.125 -0.242,0.078 -0.442,0.203 -0.59,0.367 -0.152,0.168 -0.227,0.379 -0.227,0.633 0,0.25 0.086,0.477 0.262,0.684 0.172,0.207 0.391,0.308 0.652,0.308 0.176,0 0.325,-0.05 0.446,-0.16 0.121,-0.105 0.179,-0.246 0.179,-0.418 0,-0.222 -0.074,-0.418 -0.222,-0.586 -0.149,-0.168 -0.336,-0.269 -0.559,-0.312"
         style="fill:#000000;fill-opacity:1;fill-rule:nonzero;stroke:none"
         id="path3239" /><path
         d="m 224.684,94.047 0,0.301 c 0,0.019 0.007,0.039 0.019,0.062 l 1.742,1.926 c 0.262,0.281 0.473,0.519 0.637,0.715 0.164,0.191 0.328,0.414 0.488,0.668 0.16,0.25 0.285,0.508 0.379,0.769 0.094,0.258 0.141,0.535 0.141,0.825 0,0.308 -0.055,0.601 -0.168,0.878 -0.113,0.282 -0.281,0.504 -0.508,0.672 -0.223,0.168 -0.492,0.25 -0.812,0.25 -0.325,0 -0.614,-0.097 -0.875,-0.293 -0.258,-0.195 -0.442,-0.445 -0.547,-0.754 0.031,0.004 0.07,0.008 0.121,0.008 0.168,0 0.312,-0.054 0.429,-0.168 0.118,-0.113 0.176,-0.258 0.176,-0.437 0,-0.172 -0.058,-0.317 -0.176,-0.438 -0.117,-0.117 -0.261,-0.176 -0.429,-0.176 -0.176,0 -0.321,0.063 -0.442,0.184 -0.117,0.121 -0.175,0.266 -0.175,0.43 0,0.281 0.05,0.543 0.156,0.789 0.105,0.246 0.258,0.465 0.457,0.656 0.199,0.191 0.426,0.34 0.676,0.441 0.25,0.102 0.511,0.153 0.793,0.153 0.425,0 0.824,-0.09 1.191,-0.27 0.367,-0.179 0.66,-0.437 0.875,-0.765 0.215,-0.332 0.324,-0.715 0.324,-1.16 0,-0.325 -0.07,-0.629 -0.215,-0.922 -0.14,-0.293 -0.324,-0.559 -0.546,-0.797 -0.223,-0.239 -0.504,-0.508 -0.852,-0.813 -0.348,-0.301 -0.574,-0.504 -0.684,-0.605 l -1.269,-1.219 1.078,0 c 0.527,0 0.969,0.004 1.324,0.012 0.36,0.008 0.547,0.023 0.567,0.043 0.089,0.093 0.179,0.437 0.269,1.035 l 0.328,0 -0.316,-2 -4.156,0 z"
         style="fill:#000000;fill-opacity:1;fill-rule:nonzero;stroke:none"
         id="path3241" /><path
         d="m 327.844,117.191 c 0.187,-0.144 0.453,-0.218 0.797,-0.218 0.332,0 0.625,0.16 0.882,0.48 0.254,0.32 0.426,0.668 0.52,1.051 l 0.73,2.836 c 0.114,0.515 0.172,0.867 0.172,1.055 0,0.265 -0.074,0.496 -0.222,0.695 -0.149,0.199 -0.356,0.297 -0.625,0.297 -0.336,0 -0.653,-0.106 -0.95,-0.317 -0.296,-0.211 -0.546,-0.48 -0.75,-0.804 -0.203,-0.325 -0.347,-0.657 -0.429,-0.989 -0.024,-0.066 -0.063,-0.101 -0.125,-0.101 l -0.196,0 c -0.085,0 -0.125,0.051 -0.125,0.148 l 0,0.047 c 0.102,0.395 0.278,0.781 0.528,1.16 0.25,0.379 0.558,0.684 0.918,0.918 0.363,0.235 0.75,0.352 1.164,0.352 0.39,0 0.742,-0.106 1.058,-0.313 0.313,-0.211 0.536,-0.492 0.664,-0.851 0.184,0.328 0.418,0.601 0.704,0.824 0.281,0.227 0.593,0.34 0.929,0.34 0.231,0 0.465,-0.043 0.703,-0.125 0.243,-0.078 0.438,-0.203 0.59,-0.367 0.149,-0.168 0.227,-0.375 0.227,-0.625 0,-0.27 -0.09,-0.504 -0.262,-0.7 -0.176,-0.195 -0.398,-0.293 -0.668,-0.293 -0.172,0 -0.316,0.055 -0.43,0.164 -0.117,0.11 -0.175,0.247 -0.175,0.415 0,0.222 0.078,0.418 0.23,0.589 0.156,0.168 0.34,0.27 0.555,0.301 -0.195,0.153 -0.461,0.227 -0.797,0.227 -0.344,0 -0.645,-0.16 -0.895,-0.477 -0.253,-0.32 -0.433,-0.672 -0.535,-1.062 l -0.703,-2.828 c -0.117,-0.43 -0.172,-0.782 -0.172,-1.055 0,-0.274 0.074,-0.504 0.227,-0.699 0.156,-0.196 0.359,-0.293 0.617,-0.293 0.5,0 0.945,0.218 1.336,0.66 0.394,0.441 0.652,0.922 0.777,1.449 0.024,0.063 0.067,0.094 0.125,0.094 l 0.2,0 c 0.042,0 0.074,-0.016 0.097,-0.043 0.028,-0.028 0.043,-0.063 0.043,-0.098 0,-0.012 -0.008,-0.027 -0.015,-0.047 -0.153,-0.636 -0.469,-1.199 -0.958,-1.695 -0.48,-0.496 -1.027,-0.742 -1.636,-0.742 -0.391,0 -0.746,0.105 -1.059,0.312 -0.316,0.215 -0.539,0.5 -0.672,0.86 -0.164,-0.313 -0.394,-0.586 -0.691,-0.825 -0.293,-0.23 -0.606,-0.347 -0.942,-0.347 -0.226,0 -0.46,0.039 -0.707,0.121 -0.242,0.082 -0.437,0.203 -0.589,0.371 -0.149,0.168 -0.223,0.379 -0.223,0.633 0,0.25 0.086,0.476 0.258,0.683 0.176,0.204 0.394,0.309 0.656,0.309 0.176,0 0.324,-0.055 0.445,-0.16 0.121,-0.106 0.18,-0.246 0.18,-0.418 0,-0.227 -0.074,-0.422 -0.227,-0.586 -0.148,-0.168 -0.332,-0.274 -0.554,-0.313"
         style="fill:#000000;fill-opacity:1;fill-rule:nonzero;stroke:none"
         id="path3243" /><path
         d="m 336.789,113.512 c 0.176,-0.254 0.41,-0.446 0.707,-0.567 0.297,-0.125 0.613,-0.187 0.953,-0.187 0.434,0 0.742,0.187 0.922,0.555 0.184,0.371 0.277,0.789 0.277,1.261 0,0.211 -0.019,0.422 -0.058,0.633 -0.039,0.211 -0.106,0.41 -0.195,0.59 -0.09,0.183 -0.215,0.328 -0.375,0.437 -0.157,0.11 -0.352,0.168 -0.582,0.168 l -0.743,0 c -0.066,0 -0.101,0.032 -0.101,0.102 l 0,0.098 c 0,0.058 0.035,0.086 0.101,0.086 l 0.618,0.05 c 0.261,0 0.48,0.102 0.652,0.297 0.172,0.195 0.301,0.438 0.379,0.719 0.082,0.281 0.121,0.551 0.121,0.805 0,0.359 -0.082,0.652 -0.25,0.882 -0.168,0.231 -0.426,0.344 -0.766,0.344 -0.285,0 -0.554,-0.055 -0.816,-0.16 -0.258,-0.109 -0.465,-0.273 -0.617,-0.492 0.015,0.004 0.027,0.008 0.039,0.012 0.011,0 0.023,0 0.035,0 0.168,0 0.308,-0.055 0.422,-0.172 0.113,-0.118 0.172,-0.258 0.172,-0.422 0,-0.164 -0.059,-0.301 -0.172,-0.418 -0.114,-0.117 -0.254,-0.176 -0.422,-0.176 -0.16,0 -0.301,0.059 -0.418,0.176 -0.117,0.117 -0.176,0.254 -0.176,0.418 0,0.32 0.098,0.597 0.289,0.836 0.195,0.234 0.442,0.414 0.746,0.539 0.305,0.121 0.61,0.183 0.918,0.183 0.227,0 0.465,-0.035 0.715,-0.101 0.25,-0.067 0.481,-0.164 0.684,-0.293 0.203,-0.125 0.371,-0.285 0.5,-0.485 0.129,-0.195 0.195,-0.417 0.195,-0.671 0,-0.313 -0.07,-0.602 -0.211,-0.868 -0.141,-0.265 -0.332,-0.496 -0.578,-0.691 -0.242,-0.191 -0.512,-0.336 -0.801,-0.43 0.324,-0.062 0.633,-0.183 0.922,-0.367 0.293,-0.183 0.527,-0.414 0.703,-0.699 0.176,-0.285 0.266,-0.59 0.266,-0.918 0,-0.414 -0.114,-0.785 -0.34,-1.121 -0.227,-0.332 -0.524,-0.594 -0.891,-0.781 -0.367,-0.188 -0.758,-0.282 -1.164,-0.282 -0.351,0 -0.703,0.067 -1.054,0.2 -0.352,0.132 -0.641,0.332 -0.864,0.601 -0.222,0.266 -0.336,0.582 -0.336,0.957 0,0.184 0.063,0.34 0.188,0.461 0.121,0.125 0.277,0.188 0.465,0.188 0.117,0 0.23,-0.028 0.328,-0.086 0.101,-0.055 0.179,-0.133 0.234,-0.239 0.059,-0.101 0.086,-0.207 0.086,-0.324 0,-0.183 -0.062,-0.34 -0.191,-0.461 -0.125,-0.125 -0.282,-0.187 -0.457,-0.187 l -0.059,0 z"
         style="fill:#000000;fill-opacity:1;fill-rule:nonzero;stroke:none"
         id="path3245" /><path
         d="m 103.555,195.879 c -0.102,0 -0.149,0.07 -0.149,0.207 0.035,0.234 0.106,0.352 0.211,0.352 0.332,0 0.567,0.027 0.699,0.089 0.133,0.059 0.235,0.211 0.309,0.457 l 1.805,7.204 c 0.078,0.195 0.117,0.453 0.117,0.765 0,0.457 -0.156,0.688 -0.469,0.688 -0.336,0 -0.582,-0.2 -0.742,-0.602 -0.164,-0.398 -0.32,-0.898 -0.469,-1.508 0,-0.07 -0.043,-0.101 -0.133,-0.101 l -0.187,0 c -0.027,0 -0.055,0.019 -0.086,0.054 -0.031,0.043 -0.051,0.079 -0.051,0.11 0.117,0.465 0.227,0.855 0.336,1.176 0.106,0.324 0.274,0.617 0.5,0.882 0.227,0.27 0.508,0.403 0.848,0.403 0.363,0 0.683,-0.106 0.957,-0.313 0.277,-0.203 0.457,-0.484 0.535,-0.836 0.289,0.34 0.613,0.614 0.965,0.828 0.355,0.211 0.722,0.321 1.097,0.321 0.446,0 0.836,-0.121 1.168,-0.364 0.329,-0.238 0.579,-0.55 0.747,-0.937 0.167,-0.391 0.25,-0.809 0.25,-1.254 0,-0.687 -0.176,-1.398 -0.528,-2.133 -0.351,-0.734 -0.828,-1.344 -1.43,-1.832 -0.601,-0.488 -1.246,-0.73 -1.933,-0.73 -0.313,0 -0.598,0.086 -0.852,0.261 -0.25,0.18 -0.445,0.414 -0.586,0.7 l -0.726,-2.844 c -0.028,-0.156 -0.043,-0.25 -0.047,-0.274 0,-0.14 0.352,-0.21 1.055,-0.21 0.109,0 0.164,-0.071 0.164,-0.204 -0.035,-0.14 -0.067,-0.234 -0.09,-0.281 -0.024,-0.047 -0.086,-0.074 -0.184,-0.074 l -3.101,0 z m 4.383,3.348 c 0.371,0 0.71,0.152 1.031,0.457 0.316,0.304 0.574,0.648 0.773,1.027 0.145,0.285 0.281,0.637 0.406,1.051 0.129,0.414 0.239,0.851 0.332,1.32 0.098,0.473 0.145,0.844 0.145,1.121 0,0.242 -0.031,0.473 -0.098,0.684 -0.066,0.215 -0.172,0.394 -0.32,0.539 -0.148,0.144 -0.344,0.215 -0.59,0.215 -0.39,0 -0.762,-0.141 -1.109,-0.418 -0.344,-0.282 -0.656,-0.625 -0.938,-1.035 l 0,-0.059 -0.882,-3.527 c 0.074,-0.379 0.214,-0.704 0.421,-0.973 0.207,-0.27 0.485,-0.402 0.829,-0.402"
         style="fill:#000000;fill-opacity:1;fill-rule:nonzero;stroke:none"
         id="path3247" /><path
         d="m 113.039,194.902 0,0.395 c 0.934,0 1.399,0.117 1.399,0.355 l 0,5.879 c -0.387,-0.187 -0.875,-0.281 -1.465,-0.281 l 0,0.395 c 0.914,0 1.605,0.238 2.074,0.718 l 0.156,0 c 0.027,0 0.051,-0.011 0.074,-0.031 0.024,-0.019 0.036,-0.043 0.036,-0.07 l 0,-6.61 c 0,-0.238 0.468,-0.355 1.402,-0.355 l 0,-0.395 -3.676,0 z"
         style="fill:#000000;fill-opacity:1;fill-rule:nonzero;stroke:none"
         id="path3249" /><path
         d="m 215.156,154.961 c -0.101,0 -0.152,0.066 -0.152,0.203 0.039,0.234 0.109,0.352 0.215,0.352 0.332,0 0.562,0.031 0.695,0.089 0.133,0.059 0.238,0.211 0.309,0.458 l 1.808,7.203 c 0.078,0.199 0.117,0.453 0.117,0.769 0,0.457 -0.156,0.688 -0.472,0.688 -0.332,0 -0.578,-0.203 -0.742,-0.602 -0.161,-0.398 -0.317,-0.902 -0.465,-1.512 0,-0.066 -0.047,-0.101 -0.133,-0.101 l -0.188,0 c -0.027,0 -0.058,0.019 -0.089,0.058 -0.032,0.039 -0.047,0.075 -0.047,0.106 0.117,0.465 0.226,0.855 0.332,1.18 0.105,0.324 0.273,0.617 0.5,0.882 0.226,0.266 0.511,0.399 0.847,0.399 0.368,0 0.688,-0.102 0.961,-0.309 0.278,-0.207 0.453,-0.484 0.532,-0.84 0.293,0.34 0.613,0.618 0.968,0.829 0.356,0.214 0.719,0.32 1.094,0.32 0.449,0 0.84,-0.121 1.168,-0.36 0.332,-0.238 0.582,-0.55 0.746,-0.941 0.168,-0.387 0.25,-0.805 0.25,-1.254 0,-0.687 -0.176,-1.398 -0.527,-2.133 -0.352,-0.734 -0.828,-1.343 -1.43,-1.832 -0.601,-0.488 -1.246,-0.73 -1.93,-0.73 -0.316,0 -0.597,0.09 -0.851,0.265 -0.25,0.18 -0.449,0.411 -0.586,0.7 L 217.355,156 c -0.023,-0.156 -0.039,-0.246 -0.046,-0.273 0,-0.141 0.351,-0.211 1.054,-0.211 0.11,0 0.168,-0.067 0.168,-0.203 -0.039,-0.141 -0.07,-0.235 -0.09,-0.278 -0.023,-0.051 -0.086,-0.074 -0.187,-0.074 l -3.098,0 z m 4.379,3.344 c 0.371,0 0.715,0.152 1.031,0.457 0.321,0.304 0.579,0.648 0.778,1.027 0.144,0.289 0.277,0.637 0.406,1.051 0.129,0.414 0.238,0.855 0.332,1.324 0.094,0.469 0.141,0.844 0.141,1.121 0,0.242 -0.032,0.469 -0.094,0.684 -0.066,0.215 -0.172,0.394 -0.32,0.535 -0.149,0.144 -0.348,0.219 -0.59,0.219 -0.395,0 -0.762,-0.141 -1.11,-0.422 -0.343,-0.278 -0.66,-0.625 -0.941,-1.035 l 0,-0.055 -0.883,-3.531 c 0.074,-0.379 0.215,-0.703 0.426,-0.973 0.207,-0.266 0.484,-0.402 0.824,-0.402"
         style="fill:#000000;fill-opacity:1;fill-rule:nonzero;stroke:none"
         id="path3251" /><path
         d="m 224.156,153.98 0,0.301 c 0,0.02 0.008,0.039 0.024,0.063 l 1.738,1.922 c 0.262,0.285 0.477,0.523 0.637,0.718 0.168,0.192 0.328,0.414 0.488,0.668 0.16,0.25 0.289,0.508 0.383,0.766 0.094,0.262 0.137,0.539 0.137,0.828 0,0.309 -0.055,0.602 -0.168,0.879 -0.114,0.281 -0.282,0.504 -0.504,0.672 -0.227,0.168 -0.496,0.25 -0.813,0.25 -0.324,0 -0.617,-0.098 -0.875,-0.293 -0.262,-0.195 -0.441,-0.445 -0.551,-0.754 0.032,0.004 0.071,0.008 0.121,0.008 0.168,0 0.313,-0.055 0.43,-0.168 0.121,-0.113 0.18,-0.262 0.18,-0.438 0,-0.172 -0.059,-0.316 -0.18,-0.437 -0.117,-0.117 -0.262,-0.176 -0.43,-0.176 -0.171,0 -0.32,0.063 -0.441,0.184 -0.117,0.121 -0.176,0.265 -0.176,0.429 0,0.282 0.055,0.543 0.16,0.789 0.106,0.247 0.258,0.465 0.454,0.657 0.203,0.191 0.425,0.34 0.675,0.441 0.25,0.102 0.516,0.152 0.793,0.152 0.43,0 0.825,-0.089 1.192,-0.269 0.371,-0.184 0.66,-0.438 0.875,-0.766 0.218,-0.332 0.324,-0.715 0.324,-1.16 0,-0.324 -0.07,-0.629 -0.211,-0.922 -0.145,-0.293 -0.328,-0.558 -0.551,-0.797 -0.219,-0.238 -0.504,-0.507 -0.851,-0.812 -0.344,-0.301 -0.575,-0.504 -0.68,-0.606 l -1.27,-1.218 1.075,0 c 0.531,0 0.972,0.004 1.328,0.011 0.355,0.008 0.543,0.024 0.566,0.043 0.086,0.094 0.176,0.438 0.27,1.035 l 0.324,0 -0.316,-2 -4.157,0 z"
         style="fill:#000000;fill-opacity:1;fill-rule:nonzero;stroke:none"
         id="path3253" /><path
         d="m 326.754,73.121 c -0.098,0 -0.149,0.067 -0.149,0.203 0.036,0.235 0.106,0.352 0.211,0.352 0.332,0 0.567,0.031 0.7,0.09 0.132,0.058 0.234,0.211 0.308,0.457 l 1.805,7.203 c 0.078,0.199 0.117,0.453 0.117,0.765 0,0.461 -0.156,0.688 -0.469,0.688 -0.332,0 -0.582,-0.199 -0.742,-0.598 -0.164,-0.398 -0.316,-0.902 -0.469,-1.511 0,-0.067 -0.043,-0.102 -0.132,-0.102 l -0.188,0 c -0.027,0 -0.055,0.02 -0.086,0.059 -0.031,0.039 -0.047,0.074 -0.047,0.105 0.114,0.465 0.223,0.856 0.332,1.18 0.106,0.324 0.274,0.617 0.5,0.883 0.227,0.265 0.508,0.398 0.848,0.398 0.363,0 0.684,-0.102 0.961,-0.309 0.273,-0.207 0.453,-0.484 0.531,-0.839 0.289,0.339 0.613,0.617 0.969,0.828 0.351,0.215 0.719,0.32 1.094,0.32 0.449,0 0.836,-0.121 1.168,-0.359 0.332,-0.239 0.578,-0.551 0.746,-0.942 0.168,-0.387 0.25,-0.804 0.25,-1.254 0,-0.687 -0.176,-1.398 -0.528,-2.133 -0.351,-0.734 -0.828,-1.343 -1.429,-1.832 -0.602,-0.488 -1.246,-0.73 -1.934,-0.73 -0.312,0 -0.598,0.09 -0.848,0.266 -0.253,0.179 -0.449,0.41 -0.589,0.695 l -0.727,-2.844 c -0.027,-0.156 -0.043,-0.246 -0.047,-0.273 0,-0.141 0.352,-0.211 1.055,-0.211 0.109,0 0.164,-0.067 0.164,-0.203 -0.035,-0.141 -0.066,-0.235 -0.09,-0.282 -0.023,-0.046 -0.086,-0.07 -0.184,-0.07 l -3.101,0 z m 4.383,3.344 c 0.371,0 0.715,0.152 1.031,0.457 0.316,0.305 0.574,0.648 0.773,1.027 0.145,0.289 0.282,0.637 0.407,1.051 0.129,0.414 0.242,0.855 0.336,1.324 0.093,0.469 0.14,0.844 0.14,1.117 0,0.247 -0.031,0.473 -0.097,0.688 -0.067,0.215 -0.172,0.394 -0.321,0.535 -0.148,0.145 -0.343,0.215 -0.59,0.215 -0.39,0 -0.761,-0.137 -1.105,-0.418 -0.348,-0.277 -0.66,-0.625 -0.941,-1.035 l 0,-0.055 -0.883,-3.531 c 0.074,-0.379 0.215,-0.703 0.422,-0.973 0.211,-0.265 0.484,-0.402 0.828,-0.402"
         style="fill:#000000;fill-opacity:1;fill-rule:nonzero;stroke:none"
         id="path3255" /><path
         d="m 336.266,73.008 c 0.175,-0.258 0.41,-0.445 0.703,-0.57 0.297,-0.125 0.613,-0.184 0.953,-0.184 0.433,0 0.742,0.184 0.926,0.555 0.179,0.367 0.273,0.789 0.273,1.257 0,0.211 -0.019,0.422 -0.058,0.633 -0.04,0.215 -0.102,0.41 -0.196,0.594 -0.09,0.18 -0.215,0.328 -0.375,0.437 -0.156,0.11 -0.351,0.165 -0.582,0.165 l -0.742,0 c -0.066,0 -0.098,0.035 -0.098,0.101 l 0,0.098 c 0,0.058 0.032,0.09 0.098,0.09 l 0.617,0.05 c 0.262,0 0.481,0.098 0.653,0.293 0.175,0.196 0.3,0.438 0.382,0.719 0.078,0.281 0.121,0.551 0.121,0.809 0,0.355 -0.086,0.648 -0.253,0.879 -0.168,0.23 -0.422,0.343 -0.766,0.343 -0.285,0 -0.555,-0.05 -0.813,-0.16 -0.261,-0.105 -0.464,-0.269 -0.617,-0.488 0.012,0 0.024,0.004 0.035,0.008 0.012,0 0.024,0.004 0.039,0.004 0.168,0 0.309,-0.059 0.422,-0.176 0.114,-0.117 0.168,-0.258 0.168,-0.422 0,-0.16 -0.054,-0.301 -0.168,-0.418 -0.113,-0.117 -0.254,-0.172 -0.422,-0.172 -0.164,0 -0.304,0.055 -0.421,0.172 -0.118,0.117 -0.176,0.258 -0.176,0.418 0,0.32 0.097,0.598 0.289,0.836 0.195,0.238 0.445,0.418 0.75,0.539 0.305,0.121 0.609,0.184 0.914,0.184 0.226,0 0.465,-0.036 0.715,-0.102 0.254,-0.066 0.48,-0.164 0.683,-0.289 0.207,-0.125 0.371,-0.289 0.504,-0.484 0.129,-0.196 0.192,-0.422 0.192,-0.672 0,-0.317 -0.071,-0.606 -0.211,-0.871 -0.137,-0.266 -0.332,-0.496 -0.575,-0.692 -0.246,-0.191 -0.511,-0.336 -0.804,-0.429 0.324,-0.063 0.633,-0.184 0.926,-0.368 0.289,-0.179 0.523,-0.414 0.699,-0.699 0.179,-0.285 0.265,-0.59 0.265,-0.918 0,-0.414 -0.113,-0.785 -0.339,-1.117 -0.223,-0.336 -0.52,-0.598 -0.891,-0.785 -0.367,-0.188 -0.754,-0.281 -1.164,-0.281 -0.352,0 -0.699,0.066 -1.055,0.203 -0.351,0.132 -0.637,0.332 -0.863,0.597 -0.223,0.266 -0.336,0.586 -0.336,0.957 0,0.184 0.062,0.34 0.187,0.465 0.125,0.121 0.278,0.184 0.465,0.184 0.121,0 0.231,-0.028 0.332,-0.082 0.098,-0.059 0.176,-0.137 0.235,-0.239 0.054,-0.101 0.086,-0.21 0.086,-0.328 0,-0.183 -0.067,-0.336 -0.196,-0.461 -0.125,-0.125 -0.277,-0.183 -0.457,-0.183 l -0.054,0 z"
         style="fill:#000000;fill-opacity:1;fill-rule:nonzero;stroke:none"
         id="path3257" /><path
         d="m 116.422,222.777 c -0.512,0 -0.961,0.133 -1.344,0.399 -0.383,0.265 -0.676,0.625 -0.875,1.074 -0.199,0.449 -0.301,0.926 -0.301,1.426 0,0.762 0.192,1.476 0.575,2.144 0.382,0.668 0.902,1.203 1.558,1.606 0.656,0.398 1.36,0.601 2.11,0.601 0.457,0 0.859,-0.117 1.199,-0.355 0.344,-0.238 0.515,-0.578 0.515,-1.02 0,-0.617 -0.246,-1.074 -0.738,-1.375 -0.488,-0.297 -1.043,-0.48 -1.656,-0.55 -0.613,-0.071 -1.293,-0.106 -2.039,-0.106 l -0.047,0 c -0.172,-0.637 -0.258,-1.18 -0.258,-1.633 0,-0.472 0.109,-0.89 0.328,-1.25 0.219,-0.359 0.551,-0.539 1,-0.539 0.637,0 1.246,0.145 1.832,0.438 0.586,0.293 1.063,0.695 1.434,1.211 0.031,0.031 0.074,0.047 0.125,0.047 0.055,0 0.105,-0.032 0.16,-0.09 0.055,-0.059 0.082,-0.117 0.082,-0.168 0,-0.043 -0.008,-0.074 -0.031,-0.094 -0.391,-0.547 -0.918,-0.98 -1.578,-1.293 -0.66,-0.316 -1.344,-0.473 -2.051,-0.473 m -0.949,4.258 c 0.621,0 1.191,0.028 1.718,0.086 0.528,0.055 1.004,0.203 1.43,0.434 0.43,0.23 0.641,0.593 0.641,1.082 0,0.199 -0.055,0.371 -0.164,0.519 -0.11,0.149 -0.25,0.262 -0.426,0.34 -0.176,0.078 -0.356,0.117 -0.543,0.117 -0.453,0 -0.859,-0.121 -1.223,-0.367 -0.359,-0.246 -0.66,-0.562 -0.894,-0.957 -0.235,-0.394 -0.414,-0.812 -0.539,-1.254"
         style="fill:#000000;fill-opacity:1;fill-rule:nonzero;stroke:none"
         id="path3259" /><path
         d="m 121.676,218.875 0,0.395 c 0.933,0 1.402,0.117 1.402,0.355 l 0,5.879 c -0.387,-0.188 -0.875,-0.281 -1.469,-0.281 l 0,0.394 c 0.918,0 1.61,0.238 2.075,0.719 l 0.156,0 c 0.027,0 0.051,-0.012 0.074,-0.031 0.027,-0.02 0.039,-0.043 0.039,-0.071 l 0,-6.609 c 0,-0.238 0.465,-0.355 1.399,-0.355 l 0,-0.395 -3.676,0 z"
         style="fill:#000000;fill-opacity:1;fill-rule:nonzero;stroke:none"
         id="path3261" /><path
         d="m 207.934,129.777 c -0.512,0 -0.961,0.133 -1.344,0.399 -0.383,0.265 -0.672,0.625 -0.875,1.074 -0.199,0.449 -0.301,0.926 -0.301,1.426 0,0.762 0.191,1.476 0.574,2.144 0.383,0.668 0.903,1.203 1.559,1.606 0.656,0.398 1.359,0.601 2.109,0.601 0.461,0 0.86,-0.117 1.199,-0.355 0.344,-0.238 0.516,-0.578 0.516,-1.02 0,-0.617 -0.246,-1.074 -0.738,-1.375 -0.488,-0.297 -1.039,-0.48 -1.656,-0.55 -0.614,-0.071 -1.293,-0.106 -2.036,-0.106 l -0.05,0 c -0.172,-0.637 -0.258,-1.18 -0.258,-1.633 0,-0.472 0.109,-0.89 0.328,-1.25 0.219,-0.359 0.551,-0.539 1,-0.539 0.637,0 1.246,0.145 1.832,0.438 0.586,0.293 1.062,0.695 1.434,1.211 0.031,0.031 0.074,0.047 0.125,0.047 0.054,0 0.105,-0.032 0.16,-0.09 0.054,-0.059 0.082,-0.117 0.082,-0.168 0,-0.043 -0.008,-0.074 -0.028,-0.094 -0.394,-0.547 -0.921,-0.98 -1.582,-1.293 -0.66,-0.316 -1.343,-0.473 -2.05,-0.473 m -0.95,4.258 c 0.621,0 1.196,0.028 1.719,0.086 0.527,0.055 1.004,0.203 1.43,0.434 0.43,0.23 0.64,0.593 0.64,1.082 0,0.199 -0.054,0.371 -0.164,0.519 -0.109,0.149 -0.25,0.262 -0.425,0.34 -0.176,0.078 -0.356,0.117 -0.543,0.117 -0.453,0 -0.86,-0.121 -1.223,-0.367 -0.359,-0.246 -0.66,-0.562 -0.895,-0.957 -0.234,-0.394 -0.414,-0.812 -0.539,-1.254"
         style="fill:#000000;fill-opacity:1;fill-rule:nonzero;stroke:none"
         id="path3263" /><path
         d="m 212.707,125.875 0,0.301 c 0,0.019 0.008,0.039 0.023,0.058 l 1.739,1.926 c 0.261,0.285 0.476,0.524 0.636,0.715 0.168,0.195 0.329,0.418 0.489,0.668 0.16,0.254 0.289,0.512 0.383,0.77 0.089,0.261 0.136,0.535 0.136,0.828 0,0.308 -0.054,0.601 -0.168,0.879 -0.113,0.277 -0.281,0.503 -0.504,0.671 -0.226,0.168 -0.496,0.25 -0.812,0.25 -0.324,0 -0.617,-0.097 -0.875,-0.293 -0.262,-0.195 -0.441,-0.449 -0.551,-0.757 0.031,0.007 0.07,0.011 0.121,0.011 0.168,0 0.313,-0.058 0.43,-0.172 0.121,-0.109 0.18,-0.257 0.18,-0.437 0,-0.168 -0.059,-0.316 -0.18,-0.434 -0.117,-0.117 -0.262,-0.175 -0.43,-0.175 -0.172,0 -0.32,0.058 -0.441,0.179 -0.117,0.125 -0.176,0.266 -0.176,0.43 0,0.281 0.055,0.547 0.16,0.793 0.106,0.246 0.258,0.465 0.453,0.656 0.203,0.192 0.426,0.336 0.676,0.438 0.25,0.105 0.516,0.156 0.793,0.156 0.43,0 0.824,-0.09 1.191,-0.273 0.372,-0.18 0.661,-0.434 0.875,-0.766 0.219,-0.328 0.325,-0.715 0.325,-1.156 0,-0.325 -0.071,-0.633 -0.211,-0.922 -0.145,-0.293 -0.328,-0.559 -0.551,-0.797 -0.219,-0.238 -0.504,-0.512 -0.852,-0.813 -0.343,-0.304 -0.574,-0.504 -0.683,-0.605 l -1.266,-1.219 1.074,0 c 0.532,0 0.973,0.004 1.329,0.012 0.355,0.008 0.543,0.023 0.566,0.039 0.086,0.098 0.176,0.441 0.266,1.035 l 0.328,0 -0.317,-1.996 -4.156,0 z"
         style="fill:#000000;fill-opacity:1;fill-rule:nonzero;stroke:none"
         id="path3265" /><path
         d="m 339.621,98.777 c -0.512,0 -0.961,0.133 -1.344,0.399 -0.382,0.265 -0.672,0.625 -0.875,1.074 -0.199,0.449 -0.3,0.926 -0.3,1.426 0,0.762 0.191,1.476 0.574,2.144 0.387,0.668 0.902,1.203 1.558,1.606 0.657,0.398 1.36,0.601 2.11,0.601 0.461,0 0.859,-0.117 1.203,-0.355 0.34,-0.238 0.512,-0.578 0.512,-1.02 0,-0.617 -0.246,-1.074 -0.735,-1.375 -0.492,-0.297 -1.043,-0.48 -1.66,-0.55 -0.613,-0.071 -1.293,-0.106 -2.035,-0.106 l -0.051,0 c -0.168,-0.637 -0.254,-1.18 -0.254,-1.633 0,-0.472 0.11,-0.89 0.324,-1.25 0.219,-0.359 0.555,-0.539 1,-0.539 0.637,0 1.247,0.145 1.832,0.438 0.586,0.293 1.067,0.695 1.434,1.211 0.031,0.031 0.074,0.047 0.125,0.047 0.055,0 0.109,-0.032 0.16,-0.09 0.055,-0.059 0.082,-0.117 0.082,-0.168 0,-0.043 -0.008,-0.074 -0.027,-0.094 -0.395,-0.547 -0.918,-0.98 -1.582,-1.293 -0.66,-0.316 -1.344,-0.473 -2.051,-0.473 m -0.949,4.258 c 0.621,0 1.195,0.028 1.719,0.086 0.527,0.055 1.004,0.203 1.433,0.434 0.426,0.23 0.637,0.593 0.637,1.082 0,0.199 -0.055,0.371 -0.164,0.519 -0.109,0.149 -0.25,0.262 -0.426,0.34 -0.172,0.078 -0.355,0.117 -0.543,0.117 -0.453,0 -0.859,-0.121 -1.219,-0.367 -0.363,-0.246 -0.66,-0.562 -0.898,-0.957 -0.234,-0.394 -0.414,-0.812 -0.539,-1.254"
         style="fill:#000000;fill-opacity:1;fill-rule:nonzero;stroke:none"
         id="path3267" /><path
         d="m 344.902,95.738 c 0.176,-0.254 0.411,-0.445 0.707,-0.566 0.297,-0.125 0.614,-0.188 0.95,-0.188 0.437,0 0.742,0.188 0.925,0.555 0.184,0.371 0.274,0.789 0.274,1.262 0,0.211 -0.02,0.422 -0.055,0.633 -0.039,0.211 -0.105,0.41 -0.195,0.589 -0.09,0.184 -0.215,0.329 -0.375,0.438 -0.16,0.113 -0.352,0.168 -0.582,0.168 l -0.746,0 c -0.063,0 -0.098,0.031 -0.098,0.101 l 0,0.098 c 0,0.059 0.035,0.086 0.098,0.086 l 0.621,0.051 c 0.262,0 0.476,0.101 0.652,0.297 0.172,0.195 0.301,0.437 0.379,0.718 0.082,0.282 0.121,0.551 0.121,0.805 0,0.36 -0.082,0.653 -0.25,0.883 -0.168,0.23 -0.426,0.344 -0.769,0.344 -0.282,0 -0.555,-0.055 -0.813,-0.16 -0.258,-0.11 -0.465,-0.274 -0.617,-0.493 0.016,0.004 0.027,0.008 0.035,0.012 0.012,0 0.027,0 0.039,0 0.168,0 0.309,-0.055 0.422,-0.172 0.113,-0.117 0.172,-0.258 0.172,-0.422 0,-0.164 -0.059,-0.3 -0.172,-0.418 -0.113,-0.117 -0.254,-0.175 -0.422,-0.175 -0.164,0 -0.301,0.058 -0.418,0.175 -0.117,0.118 -0.176,0.254 -0.176,0.418 0,0.321 0.098,0.598 0.289,0.836 0.192,0.235 0.442,0.414 0.747,0.539 0.304,0.121 0.609,0.184 0.914,0.184 0.226,0 0.468,-0.035 0.718,-0.102 0.25,-0.066 0.481,-0.164 0.684,-0.289 0.203,-0.129 0.371,-0.289 0.5,-0.488 0.129,-0.195 0.195,-0.418 0.195,-0.672 0,-0.312 -0.07,-0.601 -0.211,-0.867 -0.14,-0.266 -0.332,-0.496 -0.578,-0.691 -0.242,-0.192 -0.512,-0.336 -0.801,-0.43 0.325,-0.063 0.629,-0.184 0.922,-0.367 0.293,-0.184 0.528,-0.414 0.703,-0.7 0.176,-0.285 0.266,-0.589 0.266,-0.917 0,-0.415 -0.113,-0.786 -0.34,-1.122 -0.226,-0.332 -0.523,-0.593 -0.89,-0.781 -0.372,-0.187 -0.758,-0.281 -1.168,-0.281 -0.348,0 -0.7,0.066 -1.051,0.199 -0.352,0.133 -0.641,0.336 -0.863,0.602 -0.223,0.265 -0.336,0.582 -0.336,0.957 0,0.183 0.062,0.34 0.183,0.461 0.125,0.125 0.281,0.187 0.469,0.187 0.117,0 0.23,-0.027 0.328,-0.086 0.102,-0.054 0.18,-0.133 0.234,-0.238 0.059,-0.102 0.086,-0.207 0.086,-0.324 0,-0.184 -0.062,-0.336 -0.191,-0.461 -0.129,-0.125 -0.281,-0.188 -0.457,-0.188 l -0.059,0 z"
         style="fill:#000000;fill-opacity:1;fill-rule:nonzero;stroke:none"
         id="path3269" /><path
         d="m 121.035,275.863 1.578,0 0,-10.336 5.68,0 0,-1.328 -7.258,0 0,11.664 z"
         style="fill:#000000;fill-opacity:1;fill-rule:nonzero;stroke:none"
         id="path3271" /><path
         d="m 137.09,268.934 0,-0.7 -6.61,0 c 0.063,-0.992 0.364,-1.746 0.895,-2.265 0.535,-0.516 1.277,-0.778 2.23,-0.778 0.555,0 1.086,0.071 1.606,0.204 0.519,0.136 1.035,0.339 1.547,0.609 l 0,-1.359 c -0.52,-0.219 -1.047,-0.383 -1.59,-0.5 -0.539,-0.114 -1.09,-0.172 -1.645,-0.172 -1.398,0 -2.503,0.406 -3.32,1.218 -0.812,0.813 -1.223,1.911 -1.223,3.297 0,1.434 0.387,2.571 1.161,3.41 0.773,0.84 1.816,1.262 3.132,1.262 1.176,0 2.106,-0.379 2.79,-1.137 0.687,-0.757 1.027,-1.785 1.027,-3.089 m -1.438,0.425 c -0.007,0.782 -0.226,1.411 -0.66,1.879 -0.429,0.469 -0.996,0.703 -1.707,0.703 -0.801,0 -1.441,-0.226 -1.922,-0.679 -0.484,-0.453 -0.761,-1.09 -0.836,-1.914 l 5.125,0.011 z"
         style="fill:#000000;fill-opacity:1;fill-rule:nonzero;stroke:none"
         id="path3273" /><path
         d="m 143.43,268.598 c -1.164,0 -1.969,-0.133 -2.418,-0.399 -0.446,-0.265 -0.672,-0.719 -0.672,-1.359 0,-0.512 0.168,-0.914 0.504,-1.215 0.34,-0.297 0.793,-0.449 1.371,-0.449 0.797,0 1.437,0.285 1.922,0.847 0.48,0.567 0.722,1.317 0.722,2.254 l 0,0.321 -1.429,0 z m 2.867,0.593 0,-4.992 -1.438,0 0,1.328 c -0.328,-0.531 -0.738,-0.922 -1.23,-1.175 -0.488,-0.254 -1.086,-0.379 -1.797,-0.379 -0.894,0 -1.605,0.25 -2.137,0.754 -0.527,0.503 -0.793,1.175 -0.793,2.019 0,0.984 0.328,1.727 0.989,2.227 0.66,0.5 1.644,0.75 2.949,0.75 l 2.019,0 0,0.14 c 0,0.664 -0.218,1.176 -0.652,1.535 -0.437,0.364 -1.047,0.543 -1.836,0.543 -0.5,0 -0.984,-0.058 -1.461,-0.179 -0.472,-0.121 -0.93,-0.301 -1.363,-0.539 l 0,1.328 c 0.523,0.203 1.035,0.355 1.527,0.457 0.496,0.101 0.977,0.152 1.446,0.152 1.265,0 2.214,-0.328 2.839,-0.984 0.625,-0.656 0.938,-1.649 0.938,-2.985"
         style="fill:#000000;fill-opacity:1;fill-rule:nonzero;stroke:none"
         id="path3275" /><path
         d="m 154.832,272.691 0,-1.359 c -0.406,0.207 -0.828,0.363 -1.266,0.469 -0.437,0.105 -0.89,0.156 -1.359,0.156 -0.711,0 -1.246,-0.109 -1.605,-0.328 -0.356,-0.219 -0.536,-0.547 -0.536,-0.984 0,-0.332 0.129,-0.594 0.383,-0.786 0.254,-0.187 0.77,-0.371 1.539,-0.543 l 0.496,-0.109 c 1.02,-0.219 1.743,-0.527 2.172,-0.926 0.43,-0.398 0.645,-0.953 0.645,-1.668 0,-0.812 -0.321,-1.457 -0.965,-1.929 -0.641,-0.473 -1.527,-0.711 -2.652,-0.711 -0.469,0 -0.957,0.047 -1.465,0.136 -0.508,0.094 -1.043,0.231 -1.606,0.411 l 0,1.484 c 0.535,-0.277 1.059,-0.484 1.571,-0.621 0.515,-0.137 1.027,-0.207 1.535,-0.207 0.676,0 1.195,0.117 1.558,0.347 0.364,0.235 0.547,0.559 0.547,0.981 0,0.391 -0.133,0.691 -0.394,0.898 -0.262,0.207 -0.84,0.411 -1.731,0.602 l -0.5,0.117 c -0.89,0.188 -1.531,0.477 -1.929,0.863 -0.395,0.391 -0.594,0.922 -0.594,1.598 0,0.824 0.293,1.457 0.875,1.906 0.586,0.45 1.414,0.672 2.488,0.672 0.527,0 1.027,-0.039 1.496,-0.117 0.469,-0.078 0.903,-0.195 1.297,-0.352"
         style="fill:#000000;fill-opacity:1;fill-rule:nonzero;stroke:none"
         id="path3277" /><path
         d="m 159.012,275.434 0,-2.485 2.961,0 0,-1.117 -2.961,0 0,-4.75 c 0,-0.711 0.097,-1.172 0.293,-1.375 0.195,-0.203 0.593,-0.305 1.195,-0.305 l 1.473,0 0,-1.203 -1.473,0 c -1.113,0 -1.879,0.207 -2.301,0.621 -0.422,0.414 -0.629,1.168 -0.629,2.262 l 0,4.75 -1.058,0 0,1.117 1.058,0 0,2.485 1.442,0 z"
         style="fill:#000000;fill-opacity:1;fill-rule:nonzero;stroke:none"
         id="path3279" /><path
         d="m 176.004,275.484 0,-1.543 c -0.598,0.289 -1.16,0.5 -1.695,0.641 -0.532,0.141 -1.043,0.215 -1.539,0.215 -0.86,0 -1.52,-0.168 -1.989,-0.5 -0.465,-0.336 -0.699,-0.809 -0.699,-1.426 0,-0.516 0.156,-0.906 0.465,-1.168 0.312,-0.262 0.898,-0.473 1.762,-0.637 l 0.953,-0.195 c 1.179,-0.223 2.047,-0.617 2.605,-1.183 0.563,-0.567 0.84,-1.321 0.84,-2.266 0,-1.133 -0.379,-1.992 -1.137,-2.574 -0.757,-0.582 -1.867,-0.875 -3.328,-0.875 -0.554,0 -1.14,0.062 -1.765,0.187 -0.622,0.125 -1.266,0.309 -1.93,0.555 l 0,1.625 c 0.637,-0.36 1.266,-0.629 1.883,-0.813 0.613,-0.179 1.218,-0.273 1.812,-0.273 0.899,0 1.594,0.18 2.082,0.531 0.492,0.356 0.735,0.86 0.735,1.516 0,0.574 -0.176,1.019 -0.528,1.344 -0.351,0.324 -0.926,0.566 -1.726,0.726 l -0.965,0.188 c -1.176,0.234 -2.027,0.601 -2.555,1.101 -0.523,0.5 -0.789,1.195 -0.789,2.086 0,1.031 0.363,1.844 1.09,2.438 0.73,0.593 1.73,0.89 3.004,0.89 0.547,0 1.105,-0.051 1.672,-0.148 0.57,-0.098 1.148,-0.246 1.742,-0.442"
         style="fill:#000000;fill-opacity:1;fill-rule:nonzero;stroke:none"
         id="path3281" /><path
         d="m 179.965,268.566 c 0,-1.054 0.219,-1.882 0.652,-2.488 0.438,-0.601 1.035,-0.902 1.793,-0.902 0.762,0 1.36,0.301 1.797,0.902 0.438,0.606 0.656,1.434 0.656,2.488 0,1.059 -0.218,1.887 -0.656,2.489 -0.437,0.601 -1.035,0.902 -1.797,0.902 -0.758,0 -1.355,-0.301 -1.793,-0.902 -0.433,-0.602 -0.652,-1.43 -0.652,-2.489 m 4.898,-3.054 c -0.3,-0.52 -0.683,-0.907 -1.144,-1.16 -0.461,-0.254 -1.012,-0.379 -1.66,-0.379 -1.055,0 -1.918,0.422 -2.582,1.265 -0.664,0.844 -0.997,1.953 -0.997,3.328 0,1.375 0.333,2.485 0.997,3.329 0.664,0.843 1.527,1.265 2.582,1.265 0.648,0 1.199,-0.125 1.66,-0.379 0.461,-0.254 0.844,-0.64 1.144,-1.16 l 0,1.328 1.438,0 0,-12.078 -1.438,0 0,4.641 z"
         style="fill:#000000;fill-opacity:1;fill-rule:nonzero;stroke:none"
         id="path3283" /><path
         d="m 189.117,267.652 0,5.297 1.438,0 0,-5.242 c 0,-0.828 0.16,-1.449 0.48,-1.863 0.324,-0.414 0.809,-0.621 1.457,-0.621 0.774,0 1.387,0.246 1.836,0.742 0.453,0.496 0.676,1.172 0.676,2.023 l 0,4.961 1.437,0 0,-8.75 -1.437,0 0,1.348 c -0.348,-0.535 -0.75,-0.93 -1.215,-1.188 -0.457,-0.257 -0.992,-0.386 -1.605,-0.386 -1.004,0 -1.766,0.312 -2.289,0.937 -0.52,0.625 -0.778,1.539 -0.778,2.742"
         style="fill:#000000;fill-opacity:1;fill-rule:nonzero;stroke:none"
         id="path3285" /><path
         d="m 203.383,268.598 c -1.164,0 -1.969,-0.133 -2.418,-0.399 -0.445,-0.265 -0.672,-0.719 -0.672,-1.359 0,-0.512 0.168,-0.914 0.504,-1.215 0.34,-0.297 0.793,-0.449 1.371,-0.449 0.797,0 1.437,0.285 1.922,0.847 0.48,0.567 0.723,1.317 0.723,2.254 l 0,0.321 -1.43,0 z m 2.867,0.593 0,-4.992 -1.437,0 0,1.328 c -0.329,-0.531 -0.739,-0.922 -1.231,-1.175 -0.488,-0.254 -1.086,-0.379 -1.797,-0.379 -0.894,0 -1.605,0.25 -2.137,0.754 -0.527,0.503 -0.793,1.175 -0.793,2.019 0,0.984 0.329,1.727 0.989,2.227 0.66,0.5 1.644,0.75 2.949,0.75 l 2.02,0 0,0.14 c 0,0.664 -0.219,1.176 -0.653,1.535 -0.437,0.364 -1.047,0.543 -1.836,0.543 -0.5,0 -0.984,-0.058 -1.461,-0.179 -0.472,-0.121 -0.929,-0.301 -1.363,-0.539 l 0,1.328 c 0.523,0.203 1.035,0.355 1.527,0.457 0.496,0.101 0.977,0.152 1.446,0.152 1.265,0 2.215,-0.328 2.84,-0.984 0.625,-0.656 0.937,-1.649 0.937,-2.985"
         style="fill:#000000;fill-opacity:1;fill-rule:nonzero;stroke:none"
         id="path3287" /><path
         d="m 214.277,271.609 c -0.16,0.09 -0.336,0.161 -0.527,0.204 -0.187,0.046 -0.398,0.066 -0.625,0.066 -0.816,0 -1.437,-0.262 -1.875,-0.793 -0.434,-0.527 -0.652,-1.285 -0.652,-2.277 l 0,-4.61 -1.446,0 0,8.75 1.446,0 0,-1.359 c 0.304,0.531 0.695,0.926 1.179,1.183 0.485,0.258 1.075,0.387 1.77,0.387 0.098,0 0.207,-0.008 0.328,-0.019 0.117,-0.012 0.25,-0.032 0.395,-0.059 l 0.007,-1.473 z"
         style="fill:#000000;fill-opacity:1;fill-rule:nonzero;stroke:none"
         id="path3289" /><path
         d="m 222.91,268.934 0,-0.7 -6.609,0 c 0.062,-0.992 0.363,-1.746 0.894,-2.265 0.535,-0.516 1.278,-0.778 2.231,-0.778 0.551,0 1.086,0.071 1.605,0.204 0.52,0.136 1.035,0.339 1.547,0.609 l 0,-1.359 c -0.519,-0.219 -1.047,-0.383 -1.59,-0.5 -0.543,-0.114 -1.09,-0.172 -1.648,-0.172 -1.395,0 -2.5,0.406 -3.317,1.218 -0.816,0.813 -1.222,1.911 -1.222,3.297 0,1.434 0.387,2.571 1.16,3.41 0.773,0.84 1.816,1.262 3.129,1.262 1.18,0 2.109,-0.379 2.793,-1.137 0.687,-0.757 1.027,-1.785 1.027,-3.089 m -1.437,0.425 c -0.008,0.782 -0.231,1.411 -0.66,1.879 -0.43,0.469 -0.997,0.703 -1.708,0.703 -0.8,0 -1.441,-0.226 -1.925,-0.679 -0.481,-0.453 -0.758,-1.09 -0.832,-1.914 l 5.125,0.011 z"
         style="fill:#000000;fill-opacity:1;fill-rule:nonzero;stroke:none"
         id="path3291" /><path
         d="m 230.848,272.691 0,-1.359 c -0.407,0.207 -0.828,0.363 -1.266,0.469 -0.437,0.105 -0.891,0.156 -1.359,0.156 -0.715,0 -1.25,-0.109 -1.606,-0.328 -0.355,-0.219 -0.535,-0.547 -0.535,-0.984 0,-0.332 0.129,-0.594 0.383,-0.786 0.254,-0.187 0.769,-0.371 1.539,-0.543 l 0.492,-0.109 c 1.02,-0.219 1.746,-0.527 2.176,-0.926 0.43,-0.398 0.644,-0.953 0.644,-1.668 0,-0.812 -0.32,-1.457 -0.964,-1.929 -0.641,-0.473 -1.528,-0.711 -2.653,-0.711 -0.469,0 -0.957,0.047 -1.465,0.136 -0.507,0.094 -1.043,0.231 -1.605,0.411 l 0,1.484 c 0.531,-0.277 1.055,-0.484 1.57,-0.621 0.516,-0.137 1.028,-0.207 1.535,-0.207 0.676,0 1.196,0.117 1.559,0.347 0.363,0.235 0.547,0.559 0.547,0.981 0,0.391 -0.133,0.691 -0.395,0.898 -0.261,0.207 -0.84,0.411 -1.73,0.602 l -0.5,0.117 c -0.891,0.188 -1.531,0.477 -1.93,0.863 -0.394,0.391 -0.594,0.922 -0.594,1.598 0,0.824 0.293,1.457 0.875,1.906 0.586,0.45 1.414,0.672 2.485,0.672 0.531,0 1.031,-0.039 1.5,-0.117 0.469,-0.078 0.902,-0.195 1.297,-0.352"
         style="fill:#000000;fill-opacity:1;fill-rule:nonzero;stroke:none"
         id="path3293" /><path
         d="m 244.285,269.672 c 0.34,-0.117 0.668,-0.363 0.988,-0.738 0.321,-0.375 0.645,-0.891 0.965,-1.547 l 1.606,-3.188 -1.699,0 -1.489,2.992 c -0.386,0.782 -0.761,1.301 -1.125,1.555 -0.359,0.258 -0.855,0.383 -1.48,0.383 l -1.719,0 0,-4.93 -1.578,0 0,11.664 3.562,0 c 1.332,0 2.329,-0.277 2.985,-0.836 0.656,-0.554 0.984,-1.398 0.984,-2.523 0,-0.734 -0.168,-1.344 -0.512,-1.828 -0.339,-0.485 -0.835,-0.821 -1.488,-1.004 m -3.953,4.894 0,-4.14 1.984,0 c 0.762,0 1.336,0.176 1.723,0.527 0.387,0.356 0.582,0.871 0.582,1.551 0,0.684 -0.195,1.195 -0.582,1.543 -0.387,0.348 -0.961,0.519 -1.723,0.519 l -1.984,0 z"
         style="fill:#000000;fill-opacity:1;fill-rule:nonzero;stroke:none"
         id="path3295" /><path
         d="m 256.574,268.934 0,-0.7 -6.609,0 c 0.062,-0.992 0.359,-1.746 0.894,-2.265 0.532,-0.516 1.278,-0.778 2.231,-0.778 0.551,0 1.086,0.071 1.605,0.204 0.516,0.136 1.032,0.339 1.543,0.609 l 0,-1.359 c -0.515,-0.219 -1.047,-0.383 -1.586,-0.5 -0.543,-0.114 -1.089,-0.172 -1.648,-0.172 -1.399,0 -2.504,0.406 -3.316,1.218 -0.817,0.813 -1.223,1.911 -1.223,3.297 0,1.434 0.387,2.571 1.16,3.41 0.773,0.84 1.816,1.262 3.129,1.262 1.176,0 2.109,-0.379 2.793,-1.137 0.683,-0.757 1.027,-1.785 1.027,-3.089 m -1.437,0.425 c -0.012,0.782 -0.231,1.411 -0.66,1.879 -0.43,0.469 -1,0.703 -1.707,0.703 -0.801,0 -1.446,-0.226 -1.926,-0.679 -0.481,-0.453 -0.758,-1.09 -0.832,-1.914 l 5.125,0.011 z"
         style="fill:#000000;fill-opacity:1;fill-rule:nonzero;stroke:none"
         id="path3297" /><path
         d="m 264.691,268.676 c 0,1.043 -0.214,1.851 -0.644,2.422 -0.43,0.574 -1.031,0.859 -1.809,0.859 -0.769,0 -1.371,-0.285 -1.8,-0.859 -0.43,-0.571 -0.645,-1.379 -0.645,-2.422 0,-1.035 0.215,-1.84 0.645,-2.414 0.429,-0.574 1.031,-0.86 1.8,-0.86 0.778,0 1.379,0.286 1.809,0.86 0.43,0.574 0.644,1.379 0.644,2.414 m 1.438,-3.391 c 0,-1.488 -0.332,-2.597 -0.992,-3.324 -0.66,-0.727 -1.676,-1.09 -3.039,-1.09 -0.504,0 -0.981,0.039 -1.43,0.113 -0.449,0.075 -0.883,0.192 -1.305,0.348 l 0,1.398 c 0.422,-0.23 0.836,-0.398 1.25,-0.503 0.41,-0.114 0.832,-0.168 1.258,-0.168 0.942,0 1.649,0.246 2.117,0.738 0.469,0.492 0.703,1.234 0.703,2.23 l 0,0.711 c -0.296,-0.515 -0.679,-0.902 -1.14,-1.156 -0.465,-0.254 -1.02,-0.383 -1.664,-0.383 -1.074,0 -1.938,0.41 -2.594,1.227 -0.656,0.816 -0.984,1.902 -0.984,3.25 0,1.355 0.328,2.441 0.984,3.258 0.656,0.816 1.52,1.226 2.594,1.226 0.644,0 1.199,-0.129 1.664,-0.383 0.461,-0.254 0.844,-0.64 1.14,-1.156 l 0,1.328 1.438,0 0,-7.664 z"
         style="fill:#000000;fill-opacity:1;fill-rule:nonzero;stroke:none"
         id="path3299" /><path
         d="m 274.16,271.609 c -0.164,0.09 -0.34,0.161 -0.527,0.204 -0.192,0.046 -0.403,0.066 -0.629,0.066 -0.813,0 -1.438,-0.262 -1.871,-0.793 -0.438,-0.527 -0.653,-1.285 -0.653,-2.277 l 0,-4.61 -1.445,0 0,8.75 1.445,0 0,-1.359 c 0.301,0.531 0.696,0.926 1.18,1.183 0.485,0.258 1.074,0.387 1.766,0.387 0.097,0 0.207,-0.008 0.328,-0.019 0.121,-0.012 0.254,-0.032 0.398,-0.059 l 0.008,-1.473 z"
         style="fill:#000000;fill-opacity:1;fill-rule:nonzero;stroke:none"
         id="path3301" /><path
         d="m 282.793,268.934 0,-0.7 -6.609,0 c 0.062,-0.992 0.359,-1.746 0.894,-2.265 0.531,-0.516 1.277,-0.778 2.231,-0.778 0.55,0 1.086,0.071 1.605,0.204 0.516,0.136 1.031,0.339 1.543,0.609 l 0,-1.359 c -0.516,-0.219 -1.047,-0.383 -1.586,-0.5 -0.543,-0.114 -1.094,-0.172 -1.648,-0.172 -1.399,0 -2.504,0.406 -3.317,1.218 -0.816,0.813 -1.222,1.911 -1.222,3.297 0,1.434 0.386,2.571 1.16,3.41 0.773,0.84 1.816,1.262 3.129,1.262 1.175,0 2.105,-0.379 2.793,-1.137 0.683,-0.757 1.027,-1.785 1.027,-3.089 m -1.438,0.425 c -0.011,0.782 -0.23,1.411 -0.66,1.879 -0.429,0.469 -1,0.703 -1.707,0.703 -0.804,0 -1.445,-0.226 -1.925,-0.679 -0.481,-0.453 -0.758,-1.09 -0.833,-1.914 l 5.125,0.011 z"
         style="fill:#000000;fill-opacity:1;fill-rule:nonzero;stroke:none"
         id="path3303" /><path
         d="m 290.727,272.691 0,-1.359 c -0.403,0.207 -0.825,0.363 -1.262,0.469 -0.438,0.105 -0.891,0.156 -1.363,0.156 -0.711,0 -1.247,-0.109 -1.602,-0.328 -0.359,-0.219 -0.535,-0.547 -0.535,-0.984 0,-0.332 0.125,-0.594 0.383,-0.786 0.254,-0.187 0.765,-0.371 1.539,-0.543 l 0.492,-0.109 c 1.019,-0.219 1.746,-0.527 2.176,-0.926 0.429,-0.398 0.644,-0.953 0.644,-1.668 0,-0.812 -0.324,-1.457 -0.965,-1.929 -0.644,-0.473 -1.527,-0.711 -2.652,-0.711 -0.469,0 -0.957,0.047 -1.465,0.136 -0.508,0.094 -1.043,0.231 -1.605,0.411 l 0,1.484 c 0.531,-0.277 1.054,-0.484 1.57,-0.621 0.516,-0.137 1.023,-0.207 1.531,-0.207 0.676,0 1.196,0.117 1.559,0.347 0.367,0.235 0.551,0.559 0.551,0.981 0,0.391 -0.133,0.691 -0.399,0.898 -0.261,0.207 -0.836,0.411 -1.726,0.602 l -0.5,0.117 c -0.891,0.188 -1.535,0.477 -1.934,0.863 -0.394,0.391 -0.59,0.922 -0.59,1.598 0,0.824 0.289,1.457 0.875,1.906 0.582,0.45 1.41,0.672 2.485,0.672 0.531,0 1.027,-0.039 1.496,-0.117 0.472,-0.078 0.902,-0.195 1.297,-0.352"
         style="fill:#000000;fill-opacity:1;fill-rule:nonzero;stroke:none"
         id="path3305" /><path
         d="m 299.063,272.691 0,-1.359 c -0.403,0.207 -0.825,0.363 -1.262,0.469 -0.438,0.105 -0.891,0.156 -1.363,0.156 -0.711,0 -1.247,-0.109 -1.602,-0.328 -0.359,-0.219 -0.535,-0.547 -0.535,-0.984 0,-0.332 0.125,-0.594 0.383,-0.786 0.254,-0.187 0.765,-0.371 1.539,-0.543 l 0.492,-0.109 c 1.019,-0.219 1.746,-0.527 2.176,-0.926 0.429,-0.398 0.644,-0.953 0.644,-1.668 0,-0.812 -0.324,-1.457 -0.965,-1.929 -0.644,-0.473 -1.527,-0.711 -2.652,-0.711 -0.469,0 -0.957,0.047 -1.465,0.136 -0.508,0.094 -1.043,0.231 -1.605,0.411 l 0,1.484 c 0.531,-0.277 1.054,-0.484 1.57,-0.621 0.516,-0.137 1.023,-0.207 1.531,-0.207 0.676,0 1.196,0.117 1.559,0.347 0.367,0.235 0.551,0.559 0.551,0.981 0,0.391 -0.133,0.691 -0.399,0.898 -0.262,0.207 -0.836,0.411 -1.726,0.602 l -0.5,0.117 c -0.891,0.188 -1.536,0.477 -1.934,0.863 -0.395,0.391 -0.59,0.922 -0.59,1.598 0,0.824 0.289,1.457 0.875,1.906 0.582,0.45 1.41,0.672 2.485,0.672 0.531,0 1.027,-0.039 1.496,-0.117 0.472,-0.078 0.902,-0.195 1.297,-0.352"
         style="fill:#000000;fill-opacity:1;fill-rule:nonzero;stroke:none"
         id="path3307" /><path
         d="m 301.824,272.949 1.438,0 0,-8.75 -1.438,0 0,8.75 z m 0,3.41 1.438,0 0,-1.824 -1.438,0 0,1.824 z"
         style="fill:#000000;fill-opacity:1;fill-rule:nonzero;stroke:none"
         id="path3309" /><path
         d="m 309.656,271.941 c -0.769,0 -1.379,-0.3 -1.824,-0.902 -0.449,-0.601 -0.676,-1.426 -0.676,-2.473 0,-1.046 0.223,-1.871 0.668,-2.472 0.449,-0.602 1.059,-0.903 1.832,-0.903 0.77,0 1.375,0.305 1.821,0.907 0.449,0.605 0.675,1.429 0.675,2.468 0,1.039 -0.226,1.86 -0.675,2.465 -0.446,0.61 -1.051,0.91 -1.821,0.91 m 0,1.219 c 1.25,0 2.235,-0.406 2.946,-1.219 0.714,-0.812 1.074,-1.937 1.074,-3.375 0,-1.429 -0.36,-2.554 -1.074,-3.371 -0.711,-0.816 -1.696,-1.222 -2.946,-1.222 -1.254,0 -2.238,0.406 -2.949,1.222 -0.707,0.817 -1.062,1.942 -1.062,3.371 0,1.438 0.355,2.563 1.062,3.375 0.711,0.813 1.695,1.219 2.949,1.219"
         style="fill:#000000;fill-opacity:1;fill-rule:nonzero;stroke:none"
         id="path3311" /><path
         d="m 323.332,269.484 0,-5.285 -1.437,0 0,5.235 c 0,0.828 -0.161,1.449 -0.485,1.859 -0.324,0.41 -0.808,0.617 -1.453,0.617 -0.777,0 -1.391,-0.246 -1.836,-0.742 -0.449,-0.492 -0.676,-1.168 -0.676,-2.023 l 0,-4.946 -1.441,0 0,8.75 1.441,0 0,-1.359 c 0.348,0.527 0.75,0.922 1.219,1.18 0.465,0.261 1.004,0.39 1.613,0.39 1.004,0 1.766,-0.312 2.282,-0.933 0.515,-0.622 0.773,-1.536 0.773,-2.743"
         style="fill:#000000;fill-opacity:1;fill-rule:nonzero;stroke:none"
         id="path3313" /><path
         d="m 239.52,253.199 143.281,0 0,-22.078 -143.281,0 0,22.078 z"
         style="fill:#ffffff;fill-opacity:1;fill-rule:nonzero;stroke:#000000;stroke-opacity:1;stroke-width:1;stroke-linecap:butt;stroke-linejoin:miter;stroke-miterlimit:4;stroke-dasharray:none"
         id="path3315" /><path
         d="m 247.922,243.48 16.797,0"
         style="fill:none;stroke:#0000ff;stroke-opacity:1;stroke-width:1;stroke-linecap:square;stroke-linejoin:round;stroke-miterlimit:4;stroke-dasharray:none"
         id="path3317" /><path
         d="m 283.762,242.559 c 0,0.793 -0.164,1.414 -0.489,1.863 -0.328,0.453 -0.773,0.68 -1.343,0.68 -0.571,0 -1.02,-0.227 -1.348,-0.68 -0.324,-0.449 -0.488,-1.07 -0.488,-1.863 0,-0.793 0.164,-1.414 0.488,-1.868 0.328,-0.449 0.777,-0.675 1.348,-0.675 0.57,0 1.015,0.226 1.343,0.675 0.325,0.454 0.489,1.075 0.489,1.868 m -3.668,2.289 c 0.226,0.39 0.511,0.679 0.859,0.871 0.344,0.187 0.758,0.281 1.238,0.281 0.797,0 1.446,-0.312 1.942,-0.945 0.5,-0.633 0.75,-1.465 0.75,-2.496 0,-1.032 -0.25,-1.864 -0.75,-2.5 -0.496,-0.633 -1.145,-0.95 -1.942,-0.95 -0.48,0 -0.894,0.098 -1.238,0.286 -0.348,0.191 -0.633,0.48 -0.859,0.871 l 0,-0.985 -1.086,0 0,9.117 1.086,0 0,-3.55 z"
         style="fill:#000000;fill-opacity:1;fill-rule:nonzero;stroke:none"
         id="path3319" /><path
         d="m 292.281,242.832 0,-0.527 -4.957,0 c 0.047,-0.742 0.27,-1.305 0.672,-1.696 0.399,-0.39 0.957,-0.582 1.672,-0.582 0.414,0 0.816,0.051 1.203,0.153 0.391,0.101 0.777,0.254 1.16,0.457 l 0,-1.02 c -0.386,-0.164 -0.785,-0.289 -1.191,-0.375 -0.406,-0.086 -0.817,-0.133 -1.235,-0.133 -1.05,0 -1.878,0.305 -2.488,0.914 -0.613,0.61 -0.918,1.438 -0.918,2.477 0,1.074 0.289,1.926 0.871,2.555 0.578,0.633 1.36,0.945 2.348,0.945 0.883,0 1.578,-0.281 2.094,-0.852 0.511,-0.566 0.769,-1.339 0.769,-2.316 m -1.078,0.316 c -0.008,0.59 -0.172,1.059 -0.496,1.411 -0.32,0.355 -0.746,0.531 -1.277,0.531 -0.602,0 -1.086,-0.172 -1.446,-0.512 -0.363,-0.34 -0.57,-0.816 -0.625,-1.437 l 3.844,0.007 z"
         style="fill:#000000;fill-opacity:1;fill-rule:nonzero;stroke:none"
         id="path3321" /><path
         d="m 298.234,245.652 0,-1.019 c -0.304,0.156 -0.621,0.273 -0.949,0.347 -0.328,0.083 -0.668,0.122 -1.019,0.122 -0.536,0 -0.938,-0.082 -1.203,-0.247 -0.27,-0.164 -0.403,-0.41 -0.403,-0.738 0,-0.25 0.094,-0.449 0.285,-0.59 0.192,-0.144 0.578,-0.277 1.157,-0.406 l 0.371,-0.082 c 0.761,-0.164 1.308,-0.398 1.629,-0.695 0.324,-0.297 0.484,-0.715 0.484,-1.25 0,-0.61 -0.242,-1.094 -0.723,-1.449 -0.484,-0.356 -1.144,-0.536 -1.988,-0.536 -0.352,0 -0.719,0.036 -1.102,0.106 -0.378,0.066 -0.781,0.172 -1.203,0.308 l 0,1.114 c 0.399,-0.207 0.793,-0.364 1.18,-0.469 0.383,-0.102 0.766,-0.152 1.148,-0.152 0.508,0 0.899,0.086 1.168,0.261 0.274,0.172 0.411,0.418 0.411,0.735 0,0.293 -0.098,0.515 -0.293,0.672 -0.2,0.156 -0.629,0.308 -1.301,0.453 l -0.375,0.086 c -0.664,0.14 -1.149,0.355 -1.445,0.648 -0.297,0.289 -0.446,0.692 -0.446,1.199 0,0.618 0.219,1.094 0.656,1.426 0.438,0.336 1.059,0.504 1.864,0.504 0.398,0 0.773,-0.027 1.125,-0.086 0.351,-0.059 0.676,-0.144 0.972,-0.262"
         style="fill:#000000;fill-opacity:1;fill-rule:nonzero;stroke:none"
         id="path3323" /><path
         d="m 301.371,247.707 0,-1.863 2.219,0 0,-0.836 -2.219,0 0,-3.563 c 0,-0.535 0.07,-0.879 0.219,-1.031 0.144,-0.152 0.445,-0.23 0.894,-0.23 l 1.106,0 0,-0.903 -1.106,0 c -0.832,0 -1.406,0.157 -1.722,0.465 -0.317,0.313 -0.477,0.879 -0.477,1.699 l 0,3.563 -0.789,0 0,0.836 0.789,0 0,1.863 1.086,0 z"
         style="fill:#000000;fill-opacity:1;fill-rule:nonzero;stroke:none"
         id="path3325" /><path
         d="m 312.145,248.398 0,-0.898 -1.032,0 c -0.386,0 -0.656,-0.078 -0.804,-0.234 -0.153,-0.157 -0.227,-0.438 -0.227,-0.844 l 0,-0.578 1.777,0 0,-0.836 -1.777,0 0,-5.727 -1.082,0 0,5.727 -1.031,0 0,0.836 1.031,0 0,0.457 c 0,0.73 0.168,1.262 0.508,1.597 0.34,0.336 0.879,0.5 1.617,0.5 l 1.02,0 z"
         style="fill:#000000;fill-opacity:1;fill-rule:nonzero;stroke:none"
         id="path3327" /><path
         d="m 313.047,245.844 1.078,0 0,-6.563 -1.078,0 0,6.563 z m 0,2.554 1.078,0 0,-1.367 -1.078,0 0,1.367 z"
         style="fill:#000000;fill-opacity:1;fill-rule:nonzero;stroke:none"
         id="path3329" /><path
         d="m 317.449,247.707 0,-1.863 2.219,0 0,-0.836 -2.219,0 0,-3.563 c 0,-0.535 0.071,-0.879 0.219,-1.031 0.145,-0.152 0.445,-0.23 0.895,-0.23 l 1.105,0 0,-0.903 -1.105,0 c -0.833,0 -1.407,0.157 -1.723,0.465 -0.317,0.313 -0.477,0.879 -0.477,1.699 l 0,3.563 -0.789,0 0,0.836 0.789,0 0,1.863 1.086,0 z"
         style="fill:#000000;fill-opacity:1;fill-rule:nonzero;stroke:none"
         id="path3331" /><path
         d="m 325.066,240.676 c 0,0.168 0.02,0.363 0.067,0.582 0.047,0.219 0.094,0.41 0.148,0.582 0.055,0.168 0.149,0.43 0.278,0.781 0.132,0.352 0.203,0.543 0.214,0.574 0.106,0.293 0.157,0.535 0.157,0.723 0,0.238 -0.086,0.355 -0.262,0.355 -0.316,0 -0.578,-0.16 -0.781,-0.488 -0.207,-0.324 -0.36,-0.691 -0.457,-1.094 -0.012,-0.05 -0.047,-0.074 -0.098,-0.074 l -0.141,0 c -0.066,0 -0.097,0.035 -0.097,0.11 l 0,0.035 c 0.129,0.476 0.324,0.902 0.59,1.269 0.265,0.367 0.601,0.555 1.007,0.555 0.286,0 0.528,-0.094 0.723,-0.281 0.199,-0.188 0.297,-0.426 0.297,-0.715 0,-0.149 -0.031,-0.305 -0.098,-0.469 -0.093,-0.242 -0.207,-0.535 -0.332,-0.875 -0.129,-0.34 -0.226,-0.648 -0.297,-0.926 -0.07,-0.277 -0.105,-0.543 -0.105,-0.804 0,-0.313 0.082,-0.563 0.246,-0.758 0.164,-0.195 0.402,-0.293 0.715,-0.293 0.426,0 0.777,0.324 1.058,0.973 -0.007,0.046 -0.015,0.113 -0.015,0.199 0,0.215 0.035,0.457 0.101,0.73 l 0.672,2.703 c 0.028,0.106 0.09,0.196 0.188,0.27 0.097,0.078 0.203,0.113 0.316,0.113 0.094,0 0.176,-0.031 0.25,-0.094 0.07,-0.062 0.11,-0.14 0.11,-0.242 0,-0.047 -0.004,-0.078 -0.016,-0.094 l -0.672,-2.679 c -0.078,-0.321 -0.117,-0.606 -0.117,-0.86 0,-0.3 0.07,-0.546 0.207,-0.738 0.141,-0.187 0.355,-0.281 0.656,-0.281 0.512,0 0.938,0.34 1.27,1.019 0.125,0.243 0.265,0.598 0.418,1.071 0.156,0.472 0.234,0.836 0.234,1.086 0,0.23 -0.039,0.41 -0.113,0.547 -0.074,0.136 -0.176,0.281 -0.309,0.437 -0.129,0.156 -0.195,0.273 -0.195,0.352 0,0.152 0.066,0.293 0.195,0.421 0.133,0.133 0.274,0.196 0.43,0.196 0.191,0 0.332,-0.086 0.414,-0.262 0.086,-0.176 0.129,-0.375 0.129,-0.598 0,-0.269 -0.047,-0.613 -0.137,-1.027 -0.09,-0.418 -0.203,-0.832 -0.34,-1.254 -0.136,-0.422 -0.265,-0.754 -0.386,-1.004 -0.438,-0.867 -0.985,-1.301 -1.637,-1.301 -0.332,0 -0.641,0.063 -0.918,0.192 -0.278,0.129 -0.481,0.332 -0.613,0.613 -0.129,-0.226 -0.301,-0.422 -0.508,-0.574 -0.211,-0.156 -0.442,-0.231 -0.696,-0.231 -0.527,0 -0.949,0.125 -1.269,0.375 -0.32,0.254 -0.481,0.637 -0.481,1.153"
         style="fill:#000000;fill-opacity:1;fill-rule:nonzero;stroke:none"
         id="path3333" /><path
         d="m 334.449,236.035 c -0.687,0 -1.152,0.281 -1.402,0.848 -0.246,0.566 -0.371,1.238 -0.371,2.015 0,0.489 0.043,0.946 0.133,1.375 0.089,0.43 0.265,0.793 0.527,1.094 0.266,0.297 0.637,0.449 1.113,0.449 0.367,0 0.668,-0.089 0.903,-0.273 0.238,-0.18 0.418,-0.414 0.539,-0.699 0.125,-0.285 0.207,-0.59 0.254,-0.918 0.043,-0.328 0.066,-0.668 0.066,-1.028 0,-0.48 -0.043,-0.929 -0.133,-1.351 -0.09,-0.418 -0.262,-0.777 -0.523,-1.07 -0.258,-0.293 -0.629,-0.442 -1.106,-0.442 m 0,0.219 c 0.309,0 0.543,0.16 0.696,0.48 0.152,0.321 0.246,0.672 0.285,1.063 0.035,0.387 0.05,0.801 0.05,1.238 0,0.422 -0.015,0.809 -0.05,1.164 -0.039,0.356 -0.133,0.68 -0.285,0.965 -0.149,0.289 -0.383,0.434 -0.696,0.434 -0.316,0 -0.554,-0.145 -0.707,-0.434 -0.152,-0.293 -0.246,-0.613 -0.281,-0.969 -0.039,-0.351 -0.055,-0.738 -0.055,-1.16 0,-0.312 0.008,-0.605 0.024,-0.883 0.015,-0.277 0.054,-0.562 0.121,-0.855 0.066,-0.293 0.172,-0.543 0.316,-0.742 0.149,-0.2 0.34,-0.301 0.582,-0.301"
         style="fill:#000000;fill-opacity:1;fill-rule:nonzero;stroke:none"
         id="path3335" /><path
         d="m 341.355,242.043 c -0.066,0 -0.121,0.023 -0.164,0.074 -0.043,0.051 -0.062,0.106 -0.062,0.164 0,0.059 0.019,0.114 0.062,0.164 0.043,0.051 0.098,0.078 0.164,0.078 l 3.532,0 0,3.54 c 0,0.062 0.023,0.113 0.066,0.152 0.051,0.043 0.106,0.062 0.172,0.062 0.059,0 0.113,-0.019 0.164,-0.062 0.051,-0.039 0.078,-0.09 0.078,-0.152 l 0,-3.54 3.524,0 c 0.058,0 0.109,-0.027 0.152,-0.078 0.043,-0.05 0.066,-0.105 0.066,-0.164 0,-0.058 -0.023,-0.113 -0.066,-0.164 -0.043,-0.051 -0.094,-0.074 -0.152,-0.074 l -3.524,0 0,-3.543 c 0,-0.062 -0.027,-0.113 -0.078,-0.152 -0.051,-0.039 -0.105,-0.063 -0.164,-0.063 -0.066,0 -0.121,0.024 -0.172,0.063 -0.043,0.039 -0.066,0.09 -0.066,0.152 l 0,3.543 -3.532,0 z"
         style="fill:#000000;fill-opacity:1;fill-rule:nonzero;stroke:none"
         id="path3337" /><path
         d="m 351.836,240.676 c 0,0.168 0.023,0.363 0.07,0.582 0.043,0.219 0.094,0.41 0.149,0.582 0.054,0.168 0.144,0.43 0.277,0.781 0.129,0.352 0.203,0.543 0.215,0.574 0.105,0.293 0.156,0.535 0.156,0.723 0,0.238 -0.086,0.355 -0.262,0.355 -0.316,0 -0.578,-0.16 -0.785,-0.488 -0.203,-0.324 -0.355,-0.691 -0.453,-1.094 -0.015,-0.05 -0.047,-0.074 -0.098,-0.074 l -0.14,0 c -0.067,0 -0.102,0.035 -0.102,0.11 l 0,0.035 c 0.129,0.476 0.328,0.902 0.59,1.269 0.27,0.367 0.606,0.555 1.012,0.555 0.285,0 0.523,-0.094 0.723,-0.281 0.199,-0.188 0.296,-0.426 0.296,-0.715 0,-0.149 -0.035,-0.305 -0.101,-0.469 -0.094,-0.242 -0.203,-0.535 -0.332,-0.875 -0.125,-0.34 -0.223,-0.648 -0.293,-0.926 -0.07,-0.277 -0.106,-0.543 -0.106,-0.804 0,-0.313 0.082,-0.563 0.246,-0.758 0.165,-0.195 0.403,-0.293 0.715,-0.293 0.426,0 0.778,0.324 1.059,0.973 -0.012,0.046 -0.016,0.113 -0.016,0.199 0,0.215 0.032,0.457 0.098,0.73 l 0.676,2.703 c 0.027,0.106 0.09,0.196 0.187,0.27 0.098,0.078 0.203,0.113 0.317,0.113 0.093,0 0.175,-0.031 0.25,-0.094 0.07,-0.062 0.105,-0.14 0.105,-0.242 0,-0.047 -0.004,-0.078 -0.012,-0.094 l -0.672,-2.679 c -0.078,-0.321 -0.117,-0.606 -0.117,-0.86 0,-0.3 0.071,-0.546 0.207,-0.738 0.137,-0.187 0.356,-0.281 0.653,-0.281 0.515,0 0.941,0.34 1.273,1.019 0.125,0.243 0.262,0.598 0.418,1.071 0.152,0.472 0.231,0.836 0.231,1.086 0,0.23 -0.036,0.41 -0.114,0.547 -0.07,0.136 -0.176,0.281 -0.304,0.437 -0.133,0.156 -0.196,0.273 -0.196,0.352 0,0.152 0.063,0.293 0.196,0.421 0.128,0.133 0.273,0.196 0.429,0.196 0.192,0 0.328,-0.086 0.414,-0.262 0.086,-0.176 0.125,-0.375 0.125,-0.598 0,-0.269 -0.043,-0.613 -0.132,-1.027 -0.09,-0.418 -0.204,-0.832 -0.344,-1.254 -0.133,-0.422 -0.262,-0.754 -0.383,-1.004 -0.438,-0.867 -0.984,-1.301 -1.637,-1.301 -0.336,0 -0.64,0.063 -0.918,0.192 -0.277,0.129 -0.484,0.332 -0.617,0.613 -0.129,-0.226 -0.297,-0.422 -0.508,-0.574 -0.207,-0.156 -0.437,-0.231 -0.691,-0.231 -0.527,0 -0.953,0.125 -1.274,0.375 -0.32,0.254 -0.48,0.637 -0.48,1.153"
         style="fill:#000000;fill-opacity:1;fill-rule:nonzero;stroke:none"
         id="path3339" /><path
         d="m 359.898,236.223 0,0.293 c 0.7,0 1.051,0.089 1.051,0.265 l 0,4.41 c -0.289,-0.14 -0.656,-0.207 -1.097,-0.207 l 0,0.293 c 0.683,0 1.203,0.18 1.554,0.539 l 0.117,0 c 0.02,0 0.04,-0.007 0.055,-0.023 0.02,-0.016 0.027,-0.031 0.027,-0.051 l 0,-4.961 c 0,-0.176 0.352,-0.265 1.051,-0.265 l 0,-0.293 -2.758,0 z"
         style="fill:#000000;fill-opacity:1;fill-rule:nonzero;stroke:none"
         id="path3341" /><path
         d="m 366.059,239.625 c 0.14,-0.105 0.339,-0.16 0.597,-0.16 0.25,0 0.469,0.117 0.66,0.359 0.192,0.239 0.325,0.504 0.395,0.785 l 0.543,2.129 c 0.086,0.387 0.129,0.653 0.129,0.793 0,0.199 -0.055,0.371 -0.164,0.52 -0.114,0.148 -0.27,0.222 -0.469,0.222 -0.254,0 -0.492,-0.078 -0.715,-0.238 -0.222,-0.156 -0.41,-0.359 -0.562,-0.601 -0.153,-0.246 -0.258,-0.493 -0.321,-0.743 -0.015,-0.05 -0.047,-0.074 -0.093,-0.074 l -0.149,0 c -0.062,0 -0.094,0.035 -0.094,0.11 l 0,0.035 c 0.079,0.297 0.211,0.586 0.399,0.871 0.187,0.281 0.418,0.512 0.687,0.687 0.274,0.176 0.563,0.266 0.871,0.266 0.293,0 0.559,-0.078 0.793,-0.234 0.239,-0.157 0.407,-0.372 0.504,-0.641 0.137,0.246 0.313,0.453 0.524,0.621 0.211,0.168 0.445,0.254 0.699,0.254 0.172,0 0.348,-0.031 0.527,-0.094 0.18,-0.058 0.328,-0.152 0.442,-0.277 0.113,-0.125 0.168,-0.281 0.168,-0.469 0,-0.203 -0.063,-0.379 -0.196,-0.523 -0.132,-0.149 -0.296,-0.223 -0.5,-0.223 -0.129,0 -0.238,0.043 -0.324,0.125 -0.086,0.082 -0.129,0.188 -0.129,0.313 0,0.167 0.059,0.312 0.172,0.441 0.117,0.125 0.254,0.203 0.414,0.226 -0.144,0.114 -0.344,0.168 -0.597,0.168 -0.258,0 -0.481,-0.117 -0.672,-0.355 -0.188,-0.238 -0.321,-0.504 -0.399,-0.797 L 368.672,241 c -0.086,-0.32 -0.129,-0.586 -0.129,-0.793 0,-0.203 0.055,-0.379 0.172,-0.523 0.113,-0.149 0.269,-0.219 0.461,-0.219 0.375,0 0.711,0.164 1.004,0.492 0.293,0.332 0.488,0.695 0.582,1.09 0.015,0.047 0.047,0.07 0.093,0.07 l 0.149,0 c 0.031,0 0.055,-0.012 0.074,-0.035 0.02,-0.019 0.031,-0.043 0.031,-0.07 0,-0.008 -0.004,-0.02 -0.011,-0.035 -0.114,-0.477 -0.352,-0.903 -0.715,-1.274 -0.363,-0.371 -0.774,-0.555 -1.231,-0.555 -0.293,0 -0.558,0.079 -0.793,0.235 -0.238,0.16 -0.406,0.375 -0.504,0.644 -0.125,-0.234 -0.296,-0.441 -0.519,-0.617 -0.219,-0.176 -0.453,-0.262 -0.703,-0.262 -0.172,0 -0.352,0.028 -0.531,0.09 -0.184,0.059 -0.329,0.153 -0.446,0.278 -0.109,0.125 -0.168,0.285 -0.168,0.476 0,0.188 0.067,0.356 0.196,0.512 0.132,0.152 0.296,0.23 0.492,0.23 0.133,0 0.242,-0.039 0.332,-0.121 0.09,-0.078 0.137,-0.183 0.137,-0.312 0,-0.168 -0.055,-0.317 -0.168,-0.442 -0.114,-0.125 -0.25,-0.203 -0.418,-0.234"
         style="fill:#000000;fill-opacity:1;fill-rule:nonzero;stroke:none"
         id="path3343" /><path
         d="m 372.75,236.223 0,0.293 c 0.699,0 1.051,0.089 1.051,0.265 l 0,4.41 c -0.293,-0.14 -0.656,-0.207 -1.102,-0.207 l 0,0.293 c 0.688,0 1.207,0.18 1.555,0.539 l 0.117,0 c 0.02,0 0.039,-0.007 0.059,-0.023 0.015,-0.016 0.027,-0.031 0.027,-0.051 l 0,-4.961 c 0,-0.176 0.348,-0.265 1.047,-0.265 l 0,-0.293 -2.754,0 z"
         style="fill:#000000;fill-opacity:1;fill-rule:nonzero;stroke:none"
         id="path3345" /></g></g></svg>